<svg width="80" height="80" viewBox="0 0 80 80" fill="none" xmlns="http://www.w3.org/2000/svg">
<path d="M40 80C62.0914 80 80 62.0914 80 40C80 17.9086 62.0914 0 40 0C17.9086 0 0 17.9086 0 40C0 62.0914 17.9086 80 40 80Z" fill="url(#paint0_linear)"/>
<mask id="mask0" mask-type="alpha" maskUnits="userSpaceOnUse" x="0" y="0" width="80" height="80">
<path d="M40 80C62.0914 80 80 62.0914 80 40C80 17.9086 62.0914 0 40 0C17.9086 0 0 17.9086 0 40C0 62.0914 17.9086 80 40 80Z" fill="white"/>
</mask>
<g mask="url(#mask0)">
<path d="M64.5334 64.8C66.489 68.5333 67.4668 82.1333 67.4668 82.1333H12.5334C12.5334 82.1333 13.5112 68.5333 15.4668 64.8C18.4001 59.2 40.0001 52 40.0001 52C40.0001 52 61.6001 59.2 64.5334 64.8Z" fill="url(#paint1_linear)"/>
<mask id="mask1" mask-type="alpha" maskUnits="userSpaceOnUse" x="12" y="52" width="56" height="31">
<path d="M64.5334 64.8C66.489 68.5333 67.4668 82.1333 67.4668 82.1333H12.5334C12.5334 82.1333 13.5112 68.5333 15.4668 64.8C18.4001 59.2 40.0001 52 40.0001 52C40.0001 52 61.6001 59.2 64.5334 64.8Z" fill="white"/>
</mask>
<g mask="url(#mask1)">
<path opacity="0.4" fill-rule="evenodd" clip-rule="evenodd" d="M14.9334 58.4C14.9334 59.2836 14.2171 60 13.3334 60C12.4497 60 11.7334 59.2836 11.7334 58.4C11.7334 57.5163 12.4497 56.8 13.3334 56.8C14.2171 56.8 14.9334 57.5163 14.9334 58.4ZM20.2667 63.7333C20.2667 64.617 19.5504 65.3333 18.6667 65.3333C17.7831 65.3333 17.0667 64.617 17.0667 63.7333C17.0667 62.8497 17.7831 62.1333 18.6667 62.1333C19.5504 62.1333 20.2667 62.8497 20.2667 63.7333ZM30.9334 63.7333C30.9334 64.617 30.2171 65.3333 29.3334 65.3333C28.4497 65.3333 27.7334 64.617 27.7334 63.7333C27.7334 62.8497 28.4497 62.1333 29.3334 62.1333C30.2171 62.1333 30.9334 62.8497 30.9334 63.7333ZM40.0001 65.3333C40.8837 65.3333 41.6001 64.617 41.6001 63.7333C41.6001 62.8497 40.8837 62.1333 40.0001 62.1333C39.1164 62.1333 38.4001 62.8497 38.4001 63.7333C38.4001 64.617 39.1164 65.3333 40.0001 65.3333ZM52.2667 63.7333C52.2667 64.617 51.5504 65.3333 50.6667 65.3333C49.7831 65.3333 49.0667 64.617 49.0667 63.7333C49.0667 62.8497 49.7831 62.1333 50.6667 62.1333C51.5504 62.1333 52.2667 62.8497 52.2667 63.7333ZM61.3334 65.3333C62.2171 65.3333 62.9334 64.617 62.9334 63.7333C62.9334 62.8497 62.2171 62.1333 61.3334 62.1333C60.4497 62.1333 59.7334 62.8497 59.7334 63.7333C59.7334 64.617 60.4497 65.3333 61.3334 65.3333ZM24.0001 60C24.8837 60 25.6001 59.2836 25.6001 58.4C25.6001 57.5163 24.8837 56.8 24.0001 56.8C23.1164 56.8 22.4001 57.5163 22.4001 58.4C22.4001 59.2836 23.1164 60 24.0001 60ZM57.6001 58.4C57.6001 59.2836 56.8837 60 56.0001 60C55.1164 60 54.4001 59.2836 54.4001 58.4C54.4001 57.5163 55.1164 56.8 56.0001 56.8C56.8837 56.8 57.6001 57.5163 57.6001 58.4ZM66.6667 60C67.5504 60 68.2667 59.2836 68.2667 58.4C68.2667 57.5163 67.5504 56.8 66.6667 56.8C65.7831 56.8 65.0667 57.5163 65.0667 58.4C65.0667 59.2836 65.7831 60 66.6667 60ZM20.2667 74.4C20.2667 75.2836 19.5504 76 18.6667 76C17.7831 76 17.0667 75.2836 17.0667 74.4C17.0667 73.5163 17.7831 72.8 18.6667 72.8C19.5504 72.8 20.2667 73.5163 20.2667 74.4ZM29.3334 76C30.2171 76 30.9334 75.2836 30.9334 74.4C30.9334 73.5163 30.2171 72.8 29.3334 72.8C28.4497 72.8 27.7334 73.5163 27.7334 74.4C27.7334 75.2836 28.4497 76 29.3334 76ZM41.6001 74.4C41.6001 75.2836 40.8837 76 40.0001 76C39.1164 76 38.4001 75.2836 38.4001 74.4C38.4001 73.5163 39.1164 72.8 40.0001 72.8C40.8837 72.8 41.6001 73.5163 41.6001 74.4ZM50.6667 76C51.5504 76 52.2667 75.2836 52.2667 74.4C52.2667 73.5163 51.5504 72.8 50.6667 72.8C49.7831 72.8 49.0667 73.5163 49.0667 74.4C49.0667 75.2836 49.7831 76 50.6667 76ZM62.9334 74.4C62.9334 75.2836 62.2171 76 61.3334 76C60.4497 76 59.7334 75.2836 59.7334 74.4C59.7334 73.5163 60.4497 72.8 61.3334 72.8C62.2171 72.8 62.9334 73.5163 62.9334 74.4ZM13.3334 70.6667C14.2171 70.6667 14.9334 69.9503 14.9334 69.0667C14.9334 68.183 14.2171 67.4667 13.3334 67.4667C12.4497 67.4667 11.7334 68.183 11.7334 69.0667C11.7334 69.9503 12.4497 70.6667 13.3334 70.6667ZM25.6001 69.0667C25.6001 69.9503 24.8837 70.6667 24.0001 70.6667C23.1164 70.6667 22.4001 69.9503 22.4001 69.0667C22.4001 68.183 23.1164 67.4667 24.0001 67.4667C24.8837 67.4667 25.6001 68.183 25.6001 69.0667ZM34.6667 70.6667C35.5504 70.6667 36.2667 69.9503 36.2667 69.0667C36.2667 68.183 35.5504 67.4667 34.6667 67.4667C33.7831 67.4667 33.0667 68.183 33.0667 69.0667C33.0667 69.9503 33.7831 70.6667 34.6667 70.6667ZM46.9334 69.0667C46.9334 69.9503 46.2171 70.6667 45.3334 70.6667C44.4497 70.6667 43.7334 69.9503 43.7334 69.0667C43.7334 68.183 44.4497 67.4667 45.3334 67.4667C46.2171 67.4667 46.9334 68.183 46.9334 69.0667ZM56.0001 70.6667C56.8837 70.6667 57.6001 69.9503 57.6001 69.0667C57.6001 68.183 56.8837 67.4667 56.0001 67.4667C55.1164 67.4667 54.4001 68.183 54.4001 69.0667C54.4001 69.9503 55.1164 70.6667 56.0001 70.6667ZM68.2667 69.0667C68.2667 69.9503 67.5504 70.6667 66.6667 70.6667C65.7831 70.6667 65.0667 69.9503 65.0667 69.0667C65.0667 68.183 65.7831 67.4667 66.6667 67.4667C67.5504 67.4667 68.2667 68.183 68.2667 69.0667ZM13.3334 81.3333C14.2171 81.3333 14.9334 80.617 14.9334 79.7333C14.9334 78.8497 14.2171 78.1333 13.3334 78.1333C12.4497 78.1333 11.7334 78.8497 11.7334 79.7333C11.7334 80.617 12.4497 81.3333 13.3334 81.3333ZM25.6001 79.7333C25.6001 80.617 24.8837 81.3333 24.0001 81.3333C23.1164 81.3333 22.4001 80.617 22.4001 79.7333C22.4001 78.8497 23.1164 78.1333 24.0001 78.1333C24.8837 78.1333 25.6001 78.8497 25.6001 79.7333ZM34.6667 81.3333C35.5504 81.3333 36.2667 80.617 36.2667 79.7333C36.2667 78.8497 35.5504 78.1333 34.6667 78.1333C33.7831 78.1333 33.0667 78.8497 33.0667 79.7333C33.0667 80.617 33.7831 81.3333 34.6667 81.3333ZM46.9334 79.7333C46.9334 80.617 46.2171 81.3333 45.3334 81.3333C44.4497 81.3333 43.7334 80.617 43.7334 79.7333C43.7334 78.8497 44.4497 78.1333 45.3334 78.1333C46.2171 78.1333 46.9334 78.8497 46.9334 79.7333ZM56.0001 81.3333C56.8837 81.3333 57.6001 80.617 57.6001 79.7333C57.6001 78.8497 56.8837 78.1333 56.0001 78.1333C55.1164 78.1333 54.4001 78.8497 54.4001 79.7333C54.4001 80.617 55.1164 81.3333 56.0001 81.3333ZM68.2667 79.7333C68.2667 80.617 67.5504 81.3333 66.6667 81.3333C65.7831 81.3333 65.0667 80.617 65.0667 79.7333C65.0667 78.8497 65.7831 78.1333 66.6667 78.1333C67.5504 78.1333 68.2667 78.8497 68.2667 79.7333Z" fill="#13001E"/>
</g>
<path fill-rule="evenodd" clip-rule="evenodd" d="M42.8973 14.0547C41.8306 9.388 46.8885 5.80691 52.0973 8.26526C64.364 14.0547 57.0668 22.1333 52.5335 21.6C48.0002 21.0667 43.964 18.7213 42.8973 14.0547Z" fill="url(#paint2_linear)"/>
<mask id="mask2" mask-type="alpha" maskUnits="userSpaceOnUse" x="42" y="7" width="17" height="15">
<path fill-rule="evenodd" clip-rule="evenodd" d="M42.8973 14.0547C41.8306 9.388 46.8885 5.80691 52.0973 8.26526C64.364 14.0547 57.0668 22.1333 52.5335 21.6C48.0002 21.0667 43.964 18.7213 42.8973 14.0547Z" fill="white"/>
</mask>
<g mask="url(#mask2)">
<g style="mix-blend-mode:multiply" opacity="0.6">
<path fill-rule="evenodd" clip-rule="evenodd" d="M47.3335 14.8C47.3335 14.8 56.4002 20.6667 58.6668 17.4667C58.9007 18.8029 57.8252 22.5773 56.1335 22.5333C51.073 22.4016 47.3335 14.8 47.3335 14.8Z" fill="#E0713F"/>
</g>
</g>
<path fill-rule="evenodd" clip-rule="evenodd" d="M45.8667 43.4667C40.1377 46.2188 39.3021 46.0714 26.6667 35.7333C7.59999 20.1333 25.6 5.86666 44.9333 13.4667C65.8667 22.6667 58.8534 37.2279 45.8667 43.4667Z" fill="url(#paint3_linear)"/>
<path fill-rule="evenodd" clip-rule="evenodd" d="M46.3999 54.4C44.4444 57.6 35.5555 57.6 33.5999 54.4V49.0667C33.5999 49.0667 32.7299 49.0923 32.1332 49.0667C25.8961 48.7994 23.8118 38.7662 24.7906 28.7301C25.5074 21.3803 31.7332 31.4667 41.8666 24.4C41.4666 32.1334 44.7999 31.3334 46.2666 30.4C52.9332 27.3334 52.989 39.9046 46.3999 38.9334V54.4Z" fill="url(#paint4_linear)"/>
<path d="M33.6 49.0666C37.2 48.8 42.569 45.0398 42.569 45.0398C42.569 45.0398 40 50.5333 33.6 51.4666L33.6 49.0666Z" fill="#FFBB94"/>
<path d="M46.4 53.7227V52C46.8891 52 48.2895 53.1553 49.0096 54.1333C51.8567 58 48.6987 61.4667 46.1233 61.4667C42.8736 61.4667 40.7205 58.7516 40 57.4453C39.2795 58.7516 37.1265 61.4667 33.8767 61.4667C31.3014 61.4667 28.1434 58 30.9905 54.1333C31.7106 53.1553 33.111 52 33.6 52V53.7227C33.6 55.7621 38.0639 56.7061 39.9912 56.7933C41.8155 56.7061 46.4 55.7621 46.4 53.7227Z" fill="#FFF9F5"/>
<path fill-rule="evenodd" clip-rule="evenodd" d="M43.3575 19.0474C39.0908 29.7141 41.4908 34.9141 44.8242 41.1808C48.1575 47.4474 44.0242 53.3141 44.0242 53.3141C44.0242 53.3141 48.8242 50.2474 48.8242 43.4474C48.8242 36.6474 44.0242 32.3808 48.0242 26.7808C52.0242 21.1808 47.6242 8.38077 43.3575 19.0474Z" fill="url(#paint5_linear)"/>
</g>
<defs>
<linearGradient id="paint0_linear" x1="0" y1="0" x2="0" y2="80" gradientUnits="userSpaceOnUse">
<stop stop-color="#1D0024"/>
<stop offset="1" stop-color="#100014"/>
</linearGradient>
<linearGradient id="paint1_linear" x1="12.5334" y1="52" x2="12.5334" y2="82.1333" gradientUnits="userSpaceOnUse">
<stop stop-color="#806A6A"/>
<stop offset="1" stop-color="#665654"/>
</linearGradient>
<linearGradient id="paint2_linear" x1="42.7538" y1="21.6251" x2="42.7538" y2="7.46667" gradientUnits="userSpaceOnUse">
<stop stop-color="#E6864E"/>
<stop offset="1" stop-color="#E67240"/>
</linearGradient>
<linearGradient id="paint3_linear" x1="58.2203" y1="44.9822" x2="58.2203" y2="11.3619" gradientUnits="userSpaceOnUse">
<stop stop-color="#E6864E"/>
<stop offset="1" stop-color="#E67240"/>
</linearGradient>
<linearGradient id="paint4_linear" x1="24.5603" y1="24.4" x2="24.5603" y2="56.8" gradientUnits="userSpaceOnUse">
<stop stop-color="#FFD4B3"/>
<stop offset="1" stop-color="#FFDCC2"/>
</linearGradient>
<linearGradient id="paint5_linear" x1="41.0668" y1="53.3141" x2="41.0668" y2="14.9333" gradientUnits="userSpaceOnUse">
<stop stop-color="#E6864E"/>
<stop offset="1" stop-color="#E57442"/>
</linearGradient>
</defs>
</svg>
