<svg width="807" height="304" viewBox="0 0 807 304" fill="none" xmlns="http://www.w3.org/2000/svg">
<rect y="68" width="775" height="25" fill="#13367A"/>
<rect y="172" width="509" height="25" fill="#13367A"/>
<rect y="272" width="315" height="25" fill="#13367A"/>
<path d="M78.4 181.38V183.76H53.41V181.38H78.4ZM72.59 162.41V164.72H53.41V162.41H72.59ZM53.41 171.86H82.74V155.27H43.75V192.79H53.41V191.11H78.4V192.79H88.55V174.1H53.41V171.86ZM95.69 130.77H77.21C77.7 129.79 78.19 128.81 78.61 127.83L68.95 125.45C67.48 129.16 64.96 133.01 61.95 135.95V130.77H48.02C48.51 129.86 48.93 128.95 49.35 128.04L39.9 125.45C37.73 130.7 33.67 136.16 29.4 139.52C31.71 140.71 35.7 143.37 37.66 144.98C39.41 143.23 41.3 141.06 43.12 138.68H43.19C44.52 140.92 45.78 143.51 46.34 145.19L55.44 142.6C55.02 141.48 54.25 140.08 53.41 138.68H58.94C60.34 139.24 62.23 140.15 63.98 141.13H57.82V145.61H32.41V160.03H41.93V153.1H84.35V160.03H94.29V145.61H67.62V143.3L67.69 143.37C69.16 142.04 70.63 140.5 72.1 138.68H75.32C76.86 140.92 78.47 143.58 79.17 145.26L88.62 142.74C88.06 141.55 87.08 140.15 86.1 138.68H95.69V130.77ZM148.54 169.27C146.44 169.97 144.27 170.6 142.17 171.3V159.19H148.05V149.88H142.17V139.17H149.31V129.79H125.3V139.17H132.51V149.88H125.93V159.19H132.51V174.17C129.5 175.01 126.77 175.78 124.46 176.34L126.7 186.7C133.7 184.46 142.38 181.66 150.29 178.93L148.54 169.27ZM160.65 149.6H165.9V153.87H160.65V149.6ZM160.65 137.49H165.9V141.69H160.65V137.49ZM179.13 141.69H174.37V137.49H179.13V141.69ZM179.13 153.87H174.37V149.6H179.13V153.87ZM175.35 181.31V176.27H189.42V167.17H175.35V162.41H188.79V128.95H151.48V162.41H164.92V167.17H151.27V176.27H164.92V181.31H146.65V190.48H191.73V181.31H175.35ZM242.76 146.94C247.1 143.37 250.81 139.59 253.47 136.02C256.13 139.66 260.12 143.44 264.67 146.94H242.76ZM237.23 156.25H269.71V150.51C273.42 152.96 277.27 155.2 280.98 156.88C282.8 153.8 285.04 150.16 287.56 147.57C276.43 143.93 265.93 136.58 258.44 126.29H247.66C242.62 134.2 231.7 144.07 219.73 149.11C221.83 151.28 224.56 155.2 225.75 157.65C229.74 155.83 233.66 153.52 237.23 151.07V156.25ZM265.72 169.9L258.3 173.75C260.12 175.5 262.01 177.46 263.83 179.49C258.09 179.7 252.28 179.91 246.75 180.12C248.5 176.9 250.32 173.33 252.07 169.9H265.72ZM282.8 169.9V160.45H224.49V169.9H239.54C238.42 173.4 236.95 177.18 235.41 180.47C231.49 180.61 227.92 180.75 224.7 180.82L226.03 190.76C238 190.2 254.94 189.43 271.04 188.52C272.02 189.99 272.93 191.39 273.56 192.65L283.08 186.91C280 181.87 274.12 175.15 268.31 169.9H282.8ZM347.48 165.84C346.08 164.44 341.04 159.96 337.68 157.23C340.83 152.68 343.49 147.64 345.45 142.39L339.78 138.68L338.03 139.03H336.49V126.22H326.41V139.03H316.96V148.2H332.57C328.23 155.62 321.44 162.2 314.23 165.91C315.7 167.87 318.08 172.98 318.92 175.71C321.44 174.17 323.96 172.28 326.41 170.11V192.72H336.49V167.87C338.31 170.11 340.06 172.35 341.32 174.1L347.48 165.84ZM368.27 180.68V156.95H380.73V147.15H368.27V126.92H357.77V147.15H345.38V156.95H357.77V180.68H342.44V190.69H382.48V180.68H368.27ZM453.6 175.57C453.53 172.49 453.39 167.8 453.32 164.02C456.96 162.41 460.32 161.08 462.98 160.1C465.64 159.05 469.98 157.44 472.43 156.74L468.3 147.08C465.36 148.48 462.49 149.81 459.48 151.14C457.03 152.26 454.79 153.17 451.99 154.5C450.17 151.28 446.81 149.6 442.75 149.6C440.79 149.6 437.29 149.88 435.89 150.3C436.8 148.9 437.71 147.22 438.55 145.4C445.97 145.12 454.44 144.49 460.95 143.65L461.02 133.92C455.21 134.97 448.56 135.53 442.33 135.88C443.1 133.29 443.59 131.12 443.87 129.58L432.81 128.67C432.74 130.42 432.39 133.08 431.62 136.23H428.89C425.18 136.23 419.86 135.95 416.43 135.39V145.12C420.07 145.47 425.11 145.61 427.98 145.61C424.62 151.98 419.72 157.65 413.14 163.46L422.1 170.18C424.48 167.03 426.44 164.51 428.54 162.34C430.92 160.03 435.19 157.72 438.76 157.72C440.09 157.72 441.49 158.07 442.54 159.12C434.84 163.18 426.58 168.99 426.58 178.02C426.58 187.26 434.77 190.2 446.18 190.2C453.04 190.2 461.93 189.57 466.2 189.01L466.55 178.16C460.46 179.49 452.55 180.33 446.39 180.33C439.88 180.33 437.71 179.14 437.71 176.2C437.71 173.4 439.6 171.16 443.94 168.64C443.87 171.23 443.73 173.82 443.59 175.57H453.6Z" fill="white"/>
<path d="M31.36 247.66L31.1134 246.18L29.2771 246.486L29.9667 248.216L31.36 247.66ZM36.05 259.42L34.6567 259.976L35.2366 261.43L36.6646 260.788L36.05 259.42ZM48.23 276.5L48.2025 275L45.9546 275.041L46.8558 277.101L48.23 276.5ZM53.13 287.7L51.7558 288.301L52.17 289.248L53.2021 289.198L53.13 287.7ZM40.39 245.49L40.8021 246.932L40.8152 246.929L40.8283 246.925L40.39 245.49ZM29.9667 248.216L34.6567 259.976L37.4433 258.864L32.7533 247.104L29.9667 248.216ZM36.6646 260.788C40.7766 258.941 46.6956 256.408 52.7653 254.339C58.8768 252.255 64.9781 250.7 69.51 250.7V247.7C64.4519 247.7 57.9532 249.4 51.7972 251.499C45.5994 253.612 39.5834 256.189 35.4354 258.052L36.6646 260.788ZM69.51 250.7C73.1016 250.7 75.635 251.746 77.2625 253.316C78.8882 254.884 79.77 257.127 79.77 259.84H82.77C82.77 256.463 81.6568 253.386 79.345 251.157C77.0351 248.929 73.6884 247.7 69.51 247.7V250.7ZM79.77 259.84C79.77 264.503 76.8522 268.16 71.2788 270.776C65.6789 273.405 57.6581 274.827 48.2025 275L48.2575 278C57.9119 277.823 66.4111 276.375 72.5537 273.492C78.7228 270.595 82.77 266.097 82.77 259.84H79.77ZM46.8558 277.101L51.7558 288.301L54.5042 287.099L49.6042 275.899L46.8558 277.101ZM53.2021 289.198C66.4683 288.56 76.8436 285.398 83.9451 280.319C91.0926 275.207 94.88 268.172 94.88 260.05H91.88C91.88 267.118 88.6324 273.278 82.1999 277.879C75.7214 282.512 65.9717 285.58 53.0579 286.202L53.2021 289.198ZM94.88 260.05C94.88 252.88 92.1331 247.202 87.5677 243.339C83.0318 239.501 76.8184 237.55 70 237.55V240.55C76.2716 240.55 81.7482 242.344 85.6298 245.629C89.4819 248.888 91.88 253.71 91.88 260.05H94.88ZM70 237.55C64.6941 237.55 58.4019 238.815 52.8778 240.24C47.3401 241.669 42.4303 243.298 39.9517 244.055L40.8283 246.925C43.3897 246.142 48.1749 244.551 53.6272 243.145C59.0931 241.735 65.0859 240.55 70 240.55V237.55ZM39.9779 244.048C37.5384 244.745 33.5457 245.775 31.1134 246.18L31.6066 249.14C34.2143 248.705 38.3416 247.635 40.8021 246.932L39.9779 244.048ZM189.98 247.94L191.223 248.779L192.049 247.555L190.839 246.71L189.98 247.94ZM172.34 238.42L172.94 237.045L171.773 236.536L171.081 237.605L172.34 238.42ZM166.95 246.75L165.691 245.935L164.73 247.42L166.352 248.126L166.95 246.75ZM184.03 256.76L183.108 257.943L184.375 258.931L185.273 257.599L184.03 256.76ZM163.24 237.16L164.739 237.117L164.683 235.156L162.805 235.724L163.24 237.16ZM154.77 239.19L153.326 238.786L152.669 241.129L155.058 240.662L154.77 239.19ZM157.01 230.37L158.473 230.7L158.848 229.042L157.156 228.877L157.01 230.37ZM145.53 229.25L145.676 227.757L144.093 227.603L144.031 229.191L145.53 229.25ZM143.78 240.59L143.895 242.086L144.963 242.003L145.232 240.966L143.78 240.59ZM128.73 240.31L128.892 238.819L127.091 238.623L127.235 240.429L128.73 240.31ZM129.5 249.97L128.005 250.089L128.108 251.382L129.402 251.467L129.5 249.97ZM140.7 250.18L142.084 250.758L143.043 248.461L140.564 248.686L140.7 250.18ZM126.91 273.91L125.741 272.97L124.579 274.416L126.235 275.25L126.91 273.91ZM137.06 279.02L136.385 280.36L137.548 280.945L138.291 279.877L137.06 279.02ZM151.76 249.2L151.539 247.716L150.626 247.853L150.336 248.729L151.76 249.2ZM163.52 246.82L163.909 248.269L165.054 247.962L165.019 246.777L163.52 246.82ZM163.8 275.38H165.3V274.139L164.081 273.906L163.8 275.38ZM162.68 252.07V250.57H161.097L161.182 252.15L162.68 252.07ZM163.45 266.63L163.275 268.12L165.048 268.328L164.948 266.546L163.45 266.63ZM174.02 280L174.875 278.768L172.608 277.194L172.521 279.953L174.02 280ZM182.42 287.07L181.395 288.165L182.739 289.422L183.699 287.853L182.42 287.07ZM187.95 278.04L189.229 278.823L189.867 277.782L188.977 276.946L187.95 278.04ZM173.6 269.01L172.102 269.083L172.149 270.06L173.063 270.41L173.6 269.01ZM173.25 261.8L171.75 261.831L171.751 261.848L171.751 261.865L173.25 261.8ZM173.25 252.07L174.746 252.174L174.858 250.57H173.25V252.07ZM190.839 246.71C187.021 244.045 177.965 239.239 172.94 237.045L171.74 239.795C176.655 241.941 185.519 246.655 189.121 249.17L190.839 246.71ZM171.081 237.605L165.691 245.935L168.209 247.565L173.599 239.235L171.081 237.605ZM166.352 248.126C171.082 250.182 179.09 254.81 183.108 257.943L184.952 255.577C180.71 252.27 172.478 247.518 167.548 245.374L166.352 248.126ZM185.273 257.599L191.223 248.779L188.736 247.101L182.786 255.921L185.273 257.599ZM162.805 235.724C160.559 236.405 157.671 237.094 154.482 237.718L155.058 240.662C158.309 240.026 161.301 239.315 163.675 238.596L162.805 235.724ZM156.214 239.594C157.202 236.068 157.978 232.893 158.473 230.7L155.547 230.04C155.062 232.187 154.298 235.312 153.326 238.786L156.214 239.594ZM157.156 228.877L145.676 227.757L145.384 230.743L156.864 231.863L157.156 228.877ZM144.031 229.191C143.896 232.639 143.285 236.522 142.328 240.214L145.232 240.966C146.235 237.098 146.884 233.001 147.029 229.309L144.031 229.191ZM143.665 239.094C141.882 239.232 140.17 239.3 138.39 239.3V242.3C140.25 242.3 142.038 242.228 143.895 242.086L143.665 239.094ZM138.39 239.3C136.116 239.3 132.043 239.161 128.892 238.819L128.568 241.801C131.857 242.159 136.044 242.3 138.39 242.3V239.3ZM127.235 240.429L128.005 250.089L130.995 249.851L130.225 240.191L127.235 240.429ZM129.402 251.467C132.66 251.679 135.493 251.75 138.46 251.75V248.75C135.547 248.75 132.78 248.681 129.598 248.473L129.402 251.467ZM138.46 251.75C139.15 251.75 139.987 251.751 140.836 251.674L140.564 248.686C139.873 248.749 139.17 248.75 138.46 248.75V251.75ZM139.316 249.602C136.346 256.716 131.092 266.316 125.741 272.97L128.079 274.85C133.648 267.924 139.034 258.064 142.084 250.758L139.316 249.602ZM126.235 275.25L136.385 280.36L137.735 277.68L127.585 272.57L126.235 275.25ZM138.291 279.877C143.981 271.697 149.923 259.525 153.184 249.671L150.336 248.729C147.157 258.335 141.339 270.243 135.829 278.163L138.291 279.877ZM151.981 250.684C156.724 249.976 160.98 249.054 163.909 248.269L163.131 245.371C160.32 246.126 156.176 247.024 151.539 247.716L151.981 250.684ZM165.019 246.777L164.739 237.117L161.741 237.203L162.021 246.863L165.019 246.777ZM162.3 275.73C162.3 277.548 161.991 278.717 161.46 279.416C160.997 280.025 160.167 280.53 158.41 280.53V283.53C160.783 283.53 162.648 282.81 163.848 281.231C164.979 279.743 165.3 277.762 165.3 275.73H162.3ZM158.41 280.53C157.189 280.53 156.336 280.21 155.824 279.804C155.34 279.421 155.08 278.908 155.08 278.25H152.08C152.08 279.832 152.765 281.209 153.961 282.156C155.129 283.08 156.691 283.53 158.41 283.53V280.53ZM155.08 278.25C155.08 277.887 155.247 277.486 155.853 277.108C156.495 276.707 157.575 276.39 159.11 276.39V273.39C157.215 273.39 155.53 273.773 154.265 274.562C152.963 275.374 152.08 276.653 152.08 278.25H155.08ZM159.11 276.39C160.595 276.39 162.106 276.584 163.519 276.854L164.081 273.906C162.554 273.616 160.844 273.39 159.11 273.39V276.39ZM162.3 275.38V275.73H165.3V275.38H162.3ZM161.182 252.15C161.392 256.059 161.672 261.744 161.952 266.714L164.948 266.546C164.668 261.576 164.388 255.921 164.178 251.99L161.182 252.15ZM163.625 265.14C162.376 264.993 161.127 264.92 159.81 264.92V267.92C161.013 267.92 162.144 267.987 163.275 268.12L163.625 265.14ZM159.81 264.92C154.181 264.92 149.761 266.486 146.724 269.13C143.676 271.783 142.14 275.423 142.14 279.3H145.14C145.14 276.247 146.334 273.447 148.694 271.393C151.064 269.329 154.729 267.92 159.81 267.92V264.92ZM142.14 279.3C142.14 283.834 144.18 287.362 147.49 289.703C150.747 292.007 155.157 293.12 159.95 293.12V290.12C155.573 290.12 151.828 289.098 149.223 287.254C146.67 285.448 145.14 282.816 145.14 279.3H142.14ZM159.95 293.12C165.285 293.12 169.177 291.822 171.764 289.398C174.36 286.966 175.406 283.624 175.519 280.047L172.521 279.953C172.424 283.026 171.545 285.494 169.713 287.209C167.873 288.933 164.835 290.12 159.95 290.12V293.12ZM173.165 281.232C176.49 283.54 179.213 286.124 181.395 288.165L183.445 285.975C181.287 283.956 178.41 281.22 174.875 278.768L173.165 281.232ZM183.699 287.853L189.229 278.823L186.671 277.257L181.141 286.287L183.699 287.853ZM188.977 276.946C185.431 273.618 180.37 270.001 174.137 267.61L173.063 270.41C178.87 272.639 183.609 276.022 186.923 279.134L188.977 276.946ZM175.098 268.937C174.958 266.059 174.818 263.34 174.749 261.735L171.751 261.865C171.822 263.48 171.962 266.221 172.102 269.083L175.098 268.937ZM174.75 261.769C174.679 258.286 174.542 255.097 174.746 252.174L171.754 251.966C171.538 255.063 171.681 258.454 171.75 261.831L174.75 261.769ZM173.25 250.57H162.68V253.57H173.25V250.57ZM264.88 246.12L266.103 245.251L265.419 244.289L264.323 244.727L264.88 246.12ZM258.23 248.78L257.673 247.387L255.946 248.078L256.987 249.619L258.23 248.78ZM263.83 259.49L262.488 260.161L263.115 261.415L264.409 260.874L263.83 259.49ZM270.69 256.62L271.269 258.004L272.749 257.384L272.032 255.949L270.69 256.62ZM273.49 242.69L274.738 241.858L274.056 240.834L272.918 241.303L273.49 242.69ZM266.7 245.49L266.128 244.103L264.376 244.826L265.482 246.365L266.7 245.49ZM272.58 256.06L271.251 256.756L271.894 257.984L273.169 257.439L272.58 256.06ZM279.3 253.19L279.889 254.569L281.371 253.937L280.634 252.504L279.3 253.19ZM259.84 228.69L260.835 227.567L259.546 226.426L258.592 227.858L259.84 228.69ZM253.75 235.27L254.786 236.355L254.794 236.347L253.75 235.27ZM234.64 251.58L233.696 250.414L233.69 250.42L234.64 251.58ZM233.94 267.89L232.961 269.027L232.965 269.03L233.94 267.89ZM254.03 285.81L252.951 286.852L252.953 286.854L254.03 285.81ZM260.82 293.02L259.699 294.017L260.717 295.162L261.841 294.119L260.82 293.02ZM270.62 283.92L271.641 285.019L272.811 283.932L271.653 282.832L270.62 283.92ZM245.49 262.78L246.479 261.652L246.478 261.651L245.49 262.78ZM245.42 256.27L246.396 257.409L246.405 257.401L245.42 256.27ZM262.78 242.55L263.686 243.745L263.694 243.74L263.701 243.734L262.78 242.55ZM269.64 237.37L270.524 238.582L272.03 237.483L270.635 236.247L269.64 237.37ZM264.323 244.727L257.673 247.387L258.787 250.173L265.437 247.513L264.323 244.727ZM256.987 249.619C258.804 252.311 260.96 257.104 262.488 260.161L265.172 258.819C263.76 255.996 261.436 250.849 259.473 247.941L256.987 249.619ZM264.409 260.874L271.269 258.004L270.111 255.236L263.251 258.106L264.409 260.874ZM272.032 255.949C270.795 253.476 268.076 248.029 266.103 245.251L263.657 246.989C265.464 249.531 268.065 254.724 269.348 257.291L272.032 255.949ZM272.918 241.303L266.128 244.103L267.272 246.877L274.062 244.077L272.918 241.303ZM265.482 246.365C267.36 248.981 269.66 253.719 271.251 256.756L273.909 255.364C272.42 252.521 269.96 247.458 267.918 244.615L265.482 246.365ZM273.169 257.439L279.889 254.569L278.711 251.811L271.991 254.681L273.169 257.439ZM280.634 252.504C279.392 250.09 276.617 244.676 274.738 241.858L272.242 243.522C274.003 246.164 276.688 251.39 277.966 253.876L280.634 252.504ZM258.592 227.858C257.442 229.582 255.067 231.904 252.706 234.193L254.794 236.347C257.053 234.156 259.718 231.578 261.088 229.522L258.592 227.858ZM252.714 234.185C248.075 238.616 239.233 245.929 233.696 250.414L235.584 252.746C241.107 248.271 250.045 240.884 254.786 236.355L252.714 234.185ZM233.69 250.42C229.996 253.445 227.563 256.365 227.385 259.627C227.203 262.946 229.377 265.94 232.961 269.026L234.919 266.754C231.433 263.75 230.282 261.599 230.38 259.791C230.482 257.925 231.934 255.735 235.59 252.74L233.69 250.42ZM232.965 269.03C239.297 274.447 249.164 282.927 252.951 286.852L255.109 284.768C251.196 280.713 241.183 272.113 234.915 266.75L232.965 269.03ZM252.953 286.854C255.197 289.168 257.484 291.525 259.699 294.017L261.941 292.023C259.676 289.475 257.343 287.072 255.107 284.766L252.953 286.854ZM261.841 294.119L271.641 285.019L269.599 282.821L259.799 291.921L261.841 294.119ZM271.653 282.832C268.142 279.498 262.955 275.177 258.112 271.218C253.235 267.229 248.728 263.625 246.479 261.652L244.501 263.908C246.802 265.925 251.395 269.601 256.213 273.54C261.065 277.508 266.168 281.762 269.587 285.008L271.653 282.832ZM246.478 261.651C245.632 260.911 245.078 260.392 244.732 259.976C244.381 259.555 244.407 259.43 244.408 259.481C244.41 259.549 244.363 259.449 244.681 259.054C245.002 258.654 245.54 258.143 246.396 257.409L244.444 255.131C243.585 255.867 242.855 256.537 242.342 257.174C241.826 257.816 241.381 258.608 241.409 259.569C241.437 260.512 241.913 261.28 242.427 261.896C242.944 262.517 243.668 263.179 244.502 263.909L246.478 261.651ZM246.405 257.401C250.699 253.661 259.335 247.044 263.686 243.745L261.874 241.355C257.545 244.636 248.821 251.319 244.435 255.139L246.405 257.401ZM263.701 243.734C265.583 242.27 267.95 240.46 270.524 238.582L268.756 236.158C266.15 238.06 263.757 239.89 261.859 241.366L263.701 243.734ZM270.635 236.247L260.835 227.567L258.845 229.813L268.645 238.493L270.635 236.247Z" fill="white"/>
<path d="M68.67 48.59V41.94C69.93 40.05 71.12 38.09 72.24 36.13H93.8V25.7H32.34V36.13H58.73C52.43 46.35 42.14 56.5 29.89 62.1C32.06 64.41 35.28 68.68 36.89 71.41C44.59 67.42 51.52 62.03 57.47 55.87V87.51H68.67V53.21C75.67 59.09 84.14 66.51 88.06 71.48L96.81 63.64C91.77 57.97 80.92 49.78 73.85 44.25L68.67 48.59ZM147.77 73.23H159.95C159.6 73.79 159.25 74.28 158.9 74.77C155.19 75.05 151.48 75.33 147.77 75.61V73.23ZM135.1 58.18V56.08H138.6V58.18H135.1ZM135.1 48.24H138.6V50.34H135.1V48.24ZM151.2 48.24V50.34H147.77V48.24H151.2ZM151.2 58.18H147.77V56.08H151.2V58.18ZM176.12 36.69C176.19 32.21 176.19 27.45 176.19 22.48H166.46C166.46 27.52 166.46 32.28 166.46 36.69H160.72V46H166.25C165.76 57.27 164.36 66.23 159.95 73.23V66.16H147.77V64.34H159.53V42.08H147.77V40.33H160.44V33.12H147.77V30.67C152.11 30.18 156.24 29.62 159.88 28.85L155.61 21.36C147.63 23.04 135.8 24.23 125.3 24.72C126.21 26.68 127.19 29.83 127.47 31.86C131.04 31.79 134.82 31.65 138.6 31.44V33.12H125.44V40.33H138.6V42.08H127.12V64.34H138.6V66.16H126.84V73.23H138.6V76.24C133.42 76.59 128.73 76.87 124.88 77.08L126 85.48C134.19 84.78 145.11 83.8 155.75 82.75C157.5 84.5 159.32 86.67 160.23 88.28C171.71 78.97 174.86 64.9 175.84 46H180.11C179.76 67 179.2 75.19 177.87 77.01C177.17 77.99 176.54 78.27 175.49 78.27C174.09 78.27 171.71 78.27 168.91 77.99C170.52 80.72 171.64 84.85 171.85 87.65C175.21 87.72 178.43 87.72 180.67 87.23C183.12 86.67 184.87 85.83 186.62 83.17C188.86 79.88 189.35 69.38 189.91 41.03C189.91 39.84 189.98 36.69 189.98 36.69H176.12ZM255.22 61.68V65.81H242.97C244.09 64.62 245.14 63.22 246.12 61.68H255.22ZM261.66 34.17C261.17 36.2 260.47 38.37 259.84 40.12H247.1L248.15 39.84C247.87 38.23 247.1 36.13 246.19 34.17H261.66ZM235.34 48.8H285.53V40.12H269.85C270.97 38.37 272.3 36.34 273.63 34.17H282.03V25.63H258.79V21.08H248.57V25.63H225.26V34.17H236.32L235.76 34.31C236.6 36.06 237.37 38.23 237.86 40.12H225.61V51.74C225.61 60.14 225.12 72.46 219.31 80.93C221.34 82.05 225.61 85.62 227.15 87.44C231.84 80.79 233.94 71.34 234.78 62.73C236.81 63.78 239.54 65.39 241.22 66.65V73.44H255.22V78.06H236.04V86.39H284.9V78.06H265.23V73.44H279.37V65.81H265.23V61.68H281.4V53.98H265.23V49.43H255.22V53.98H250.39C250.81 53 251.16 52.09 251.51 51.11L242.48 49.01C241.01 53.49 238.28 58.04 234.92 61.19C235.27 57.83 235.34 54.61 235.34 51.81V48.8ZM362.11 36.06L362.04 32C361.97 29.62 362.11 26.54 362.46 24.16H350.49C350.91 26.89 351.12 29.76 351.26 32L351.47 36.06H329.63C327.11 36.06 323.12 35.78 321.16 35.5V46.7C323.75 46.56 327.25 46.42 329.91 46.42H346.64C341.04 54.12 329.98 62.94 316.75 69.17L324.52 77.99C334.74 72.6 345.66 63.71 351.96 55.73C352.03 61.61 352.03 66.93 352.03 71.06C352.03 73.09 351.33 74 349.72 74C347.48 74 343.77 73.72 340.69 73.23L341.67 84.22C345.94 84.5 349.72 84.64 354.34 84.64C360.29 84.64 363.09 81.7 363.02 76.73C362.88 66.93 362.6 56.43 362.39 46.42H370.16C372.12 46.42 374.99 46.49 377.51 46.56V35.43C375.69 35.71 372.05 36.06 369.53 36.06H362.11ZM414.82 60.77C417.69 60.56 422.94 60.35 426.93 60.35H464.1C466.97 60.35 470.89 60.7 472.71 60.77V47.4C470.68 47.54 467.25 47.89 464.1 47.89H426.93C423.5 47.89 417.62 47.61 414.82 47.4V60.77ZM546.77 40.54V33.89C546.77 31.65 546.91 27.59 547.4 24.93H533.96C534.73 27.59 535.01 31.37 535.01 33.82V40.54H518.21C515.2 40.54 512.19 40.26 509.67 39.98V51.74C512.26 51.53 515.2 51.32 518.49 51.32H534.87C534.03 61.96 529.76 71.62 515.9 77.85L526.47 85.69C541.94 76.31 546.07 64.69 546.7 51.32H560.84C563.99 51.32 567.77 51.53 569.45 51.67V40.05C567.77 40.26 564.62 40.54 560.91 40.54H546.77ZM605.22 60.77C608.09 60.56 613.34 60.35 617.33 60.35H654.5C657.37 60.35 661.29 60.7 663.11 60.77V47.4C661.08 47.54 657.65 47.89 654.5 47.89H617.33C613.9 47.89 608.02 47.61 605.22 47.4V60.77ZM746.06 31.02C744.03 32.7 741.79 34.03 738.85 35.71C735.84 37.46 730.59 40.19 725.48 43.13C722.75 37.95 719.67 31.65 717.15 24.65L706.58 28.92C709.66 36.2 712.88 43.27 716.1 49.22C709.73 54.05 704.83 59.72 704.83 67.63C704.83 80.44 715.82 84.29 730.1 84.29C739.34 84.29 746.27 83.59 752.57 82.54L752.71 70.43C746.13 71.9 736.68 73.09 729.82 73.09C720.93 73.09 716.52 70.92 716.52 66.37C716.52 61.82 720.37 58.11 725.76 54.61C731.85 50.69 739.97 46.98 744.1 44.95C746.9 43.55 749.42 42.22 751.87 40.75L746.06 31.02Z" fill="white"/>
</svg>
