<svg width="317" height="112" viewBox="0 0 317 112" fill="none" xmlns="http://www.w3.org/2000/svg">
<rect y="25" width="315" height="25" fill="#13367A"/>
<rect y="84" width="315" height="25" fill="#13367A"/>
<path d="M23.04 96.888V97.976H11.616V96.888H23.04ZM20.384 88.216V89.272H11.616V88.216H20.384ZM11.616 92.536H25.024V84.952H7.2V102.104H11.616V101.336H23.04V102.104H27.68V93.56H11.616V92.536ZM30.944 73.752H22.496C22.72 73.304 22.944 72.856 23.136 72.408L18.72 71.32C18.048 73.016 16.896 74.776 15.52 76.12V73.752H9.152C9.376 73.336 9.568 72.92 9.76 72.504L5.44 71.32C4.448 73.72 2.592 76.216 0.64 77.752C1.696 78.296 3.52 79.512 4.416 80.248C5.216 79.448 6.08 78.456 6.912 77.368H6.944C7.552 78.392 8.128 79.576 8.384 80.344L12.544 79.16C12.352 78.648 12 78.008 11.616 77.368H14.144C14.784 77.624 15.648 78.04 16.448 78.488H13.632V80.536H2.016V87.128H6.368V83.96H25.76V87.128H30.304V80.536H18.112V79.48L18.144 79.512C18.816 78.904 19.488 78.2 20.16 77.368H21.632C22.336 78.392 23.072 79.608 23.392 80.376L27.712 79.224C27.456 78.68 27.008 78.04 26.56 77.368H30.944V73.752ZM51.584 91.352C50.624 91.672 49.632 91.96 48.672 92.28V86.744H51.36V82.488H48.672V77.592H51.936V73.304H40.96V77.592H44.256V82.488H41.248V86.744H44.256V93.592C42.88 93.976 41.632 94.328 40.576 94.584L41.6 99.32C44.8 98.296 48.768 97.016 52.384 95.768L51.584 91.352ZM57.12 82.36H59.52V84.312H57.12V82.36ZM57.12 76.824H59.52V78.744H57.12V76.824ZM65.568 78.744H63.392V76.824H65.568V78.744ZM65.568 84.312H63.392V82.36H65.568V84.312ZM63.84 96.856V94.552H70.272V90.392H63.84V88.216H69.984V72.92H52.928V88.216H59.072V90.392H52.832V94.552H59.072V96.856H50.72V101.048H71.328V96.856H63.84ZM91.136 81.144C93.12 79.512 94.816 77.784 96.032 76.152C97.248 77.816 99.072 79.544 101.152 81.144H91.136ZM88.608 85.4H103.456V82.776C105.152 83.896 106.912 84.92 108.608 85.688C109.44 84.28 110.464 82.616 111.616 81.432C106.528 79.768 101.728 76.408 98.304 71.704H93.376C91.072 75.32 86.08 79.832 80.608 82.136C81.568 83.128 82.816 84.92 83.36 86.04C85.184 85.208 86.976 84.152 88.608 83.032V85.4ZM101.632 91.64L98.24 93.4C99.072 94.2 99.936 95.096 100.768 96.024C98.144 96.12 95.488 96.216 92.96 96.312C93.76 94.84 94.592 93.208 95.392 91.64H101.632ZM109.44 91.64V87.32H82.784V91.64H89.664C89.152 93.24 88.48 94.968 87.776 96.472C85.984 96.536 84.352 96.6 82.88 96.632L83.488 101.176C88.96 100.92 96.704 100.568 104.064 100.152C104.512 100.824 104.928 101.464 105.216 102.04L109.568 99.416C108.16 97.112 105.472 94.04 102.816 91.64H109.44ZM135.488 89.784C134.848 89.144 132.544 87.096 131.008 85.848C132.448 83.768 133.664 81.464 134.56 79.064L131.968 77.368L131.168 77.528H130.464V71.672H125.856V77.528H121.536V81.72H128.672C126.688 85.112 123.584 88.12 120.288 89.816C120.96 90.712 122.048 93.048 122.432 94.296C123.584 93.592 124.736 92.728 125.856 91.736V102.072H130.464V90.712C131.296 91.736 132.096 92.76 132.672 93.56L135.488 89.784ZM144.992 96.568V85.72H150.688V81.24H144.992V71.992H140.192V81.24H134.528V85.72H140.192V96.568H133.184V101.144H151.488V96.568H144.992ZM180.48 94.232C180.448 92.824 180.384 90.68 180.352 88.952C182.016 88.216 183.552 87.608 184.768 87.16C185.984 86.68 187.968 85.944 189.088 85.624L187.2 81.208C185.856 81.848 184.544 82.456 183.168 83.064C182.048 83.576 181.024 83.992 179.744 84.6C178.912 83.128 177.376 82.36 175.52 82.36C174.624 82.36 173.024 82.488 172.384 82.68C172.8 82.04 173.216 81.272 173.6 80.44C176.992 80.312 180.864 80.024 183.84 79.64L183.872 75.192C181.216 75.672 178.176 75.928 175.328 76.088C175.68 74.904 175.904 73.912 176.032 73.208L170.976 72.792C170.944 73.592 170.784 74.808 170.432 76.248H169.184C167.488 76.248 165.056 76.12 163.488 75.864V80.312C165.152 80.472 167.456 80.536 168.768 80.536C167.232 83.448 164.992 86.04 161.984 88.696L166.08 91.768C167.168 90.328 168.064 89.176 169.024 88.184C170.112 87.128 172.064 86.072 173.696 86.072C174.304 86.072 174.944 86.232 175.424 86.712C171.904 88.568 168.128 91.224 168.128 95.352C168.128 99.576 171.872 100.92 177.088 100.92C180.224 100.92 184.288 100.632 186.24 100.376L186.4 95.416C183.616 96.024 180 96.408 177.184 96.408C174.208 96.408 173.216 95.864 173.216 94.52C173.216 93.24 174.08 92.216 176.064 91.064C176.032 92.248 175.968 93.432 175.904 94.232H180.48Z" fill="white"/>
<path d="M198.536 81.016L198.413 80.2762L197.495 80.4292L197.839 81.2938L198.536 81.016ZM200.68 86.392L199.983 86.6698L200.273 87.3968L200.987 87.0762L200.68 86.392ZM206.248 94.2L206.234 93.4501L205.11 93.4707L205.561 94.5006L206.248 94.2ZM208.488 99.32L207.801 99.6206L208.008 100.094L208.524 100.069L208.488 99.32ZM202.664 80.024L202.87 80.7453L202.883 80.7413L202.664 80.024ZM197.839 81.2938L199.983 86.6698L201.377 86.1142L199.233 80.7382L197.839 81.2938ZM200.987 87.0762C202.866 86.2322 205.57 85.0749 208.342 84.1299C211.135 83.1777 213.916 82.47 215.976 82.47V80.97C213.652 80.97 210.673 81.7503 207.858 82.7101C205.022 83.677 202.27 84.8558 200.373 85.7078L200.987 87.0762ZM215.976 82.47C217.605 82.47 218.746 82.9444 219.475 83.6478C220.204 84.3504 220.602 85.3581 220.602 86.584H222.102C222.102 85.0259 221.588 83.6016 220.517 82.5682C219.446 81.5356 217.899 80.97 215.976 80.97V82.47ZM220.602 86.584C220.602 88.6813 219.292 90.335 216.757 91.5251C214.209 92.7214 210.553 93.371 206.234 93.4501L206.262 94.9499C210.679 94.869 214.575 94.2066 217.395 92.8829C220.228 91.553 222.102 89.4787 222.102 86.584H220.602ZM205.561 94.5006L207.801 99.6206L209.175 99.0194L206.935 93.8994L205.561 94.5006ZM208.524 100.069C214.596 99.7769 219.353 98.3294 222.612 95.998C225.895 93.6502 227.638 90.4155 227.638 86.68H226.138C226.138 89.8885 224.665 92.6858 221.74 94.778C218.791 96.8866 214.348 98.2871 208.452 98.5709L208.524 100.069ZM227.638 86.68C227.638 83.3847 226.375 80.7704 224.272 78.9915C222.185 77.2251 219.329 76.33 216.2 76.33V77.83C219.055 77.83 221.543 78.6469 223.304 80.1365C225.049 81.6136 226.138 83.7993 226.138 86.68H227.638ZM216.2 76.33C213.766 76.33 210.883 76.91 208.357 77.5618C205.823 78.2153 203.576 78.9611 202.445 79.3067L202.883 80.7413C204.056 80.3829 206.241 79.6567 208.731 79.0142C211.229 78.37 213.962 77.83 216.2 77.83V76.33ZM202.458 79.3029C201.343 79.6214 199.521 80.0915 198.413 80.2762L198.659 81.7558C199.855 81.5565 201.745 81.0666 202.87 80.7451L202.458 79.3029ZM267.528 81.144L268.15 81.5634L268.563 80.9515L267.957 80.529L267.528 81.144ZM259.464 76.792L259.764 76.1047L259.18 75.8498L258.834 76.3846L259.464 76.792ZM257 80.6L256.37 80.1926L255.89 80.9351L256.701 81.2878L257 80.6ZM264.808 85.176L264.347 85.7675L264.98 86.2615L265.43 85.5954L264.808 85.176ZM255.304 76.216L256.054 76.1943L256.025 75.2138L255.086 75.4982L255.304 76.216ZM251.432 77.144L250.71 76.9418L250.382 78.1137L251.576 77.88L251.432 77.144ZM252.456 73.112L253.188 73.2772L253.375 72.4481L252.529 72.3655L252.456 73.112ZM247.208 72.6L247.281 71.8535L246.49 71.7764L246.459 72.5706L247.208 72.6ZM246.408 77.784L246.466 78.5318L247 78.4907L247.134 77.9722L246.408 77.784ZM239.528 77.656L239.609 76.9104L238.708 76.8125L238.78 77.7156L239.528 77.656ZM239.88 82.072L239.132 82.1316L239.184 82.7782L239.831 82.8204L239.88 82.072ZM245 82.168L245.692 82.4569L246.172 81.3084L244.932 81.4211L245 82.168ZM238.696 93.016L238.112 92.546L237.53 93.2688L238.359 93.6859L238.696 93.016ZM243.336 95.352L242.999 96.0219L243.58 96.3145L243.952 95.7803L243.336 95.352ZM250.056 81.72L249.945 80.9782L249.489 81.0463L249.344 81.4844L250.056 81.72ZM255.432 80.632L255.626 81.3564L256.199 81.2028L256.182 80.6103L255.432 80.632ZM255.56 93.688H256.31V93.0674L255.7 92.9512L255.56 93.688ZM255.048 83.032V82.282H254.257L254.299 83.0721L255.048 83.032ZM255.4 89.688L255.312 90.4329L256.199 90.5372L256.149 89.6458L255.4 89.688ZM260.232 95.8L260.66 95.1838L259.526 94.3972L259.482 95.7763L260.232 95.8ZM264.072 99.032L263.56 99.5797L264.231 100.208L264.712 99.4237L264.072 99.032ZM266.6 94.904L267.24 95.2957L267.558 94.7751L267.113 94.3572L266.6 94.904ZM260.04 90.776L259.291 90.8125L259.315 91.301L259.771 91.4762L260.04 90.776ZM259.88 87.48L259.13 87.4953L259.13 87.5039L259.131 87.5126L259.88 87.48ZM259.88 83.032L260.628 83.0842L260.684 82.282H259.88V83.032ZM267.957 80.529C266.207 79.3073 262.064 77.1086 259.764 76.1047L259.164 77.4793C261.408 78.4594 265.457 80.6127 267.099 81.759L267.957 80.529ZM258.834 76.3846L256.37 80.1926L257.63 81.0074L260.094 77.1994L258.834 76.3846ZM256.701 81.2878C258.859 82.226 262.515 84.3391 264.347 85.7675L265.269 84.5845C263.325 83.0689 259.557 80.894 257.299 79.9122L256.701 81.2878ZM265.43 85.5954L268.15 81.5634L266.906 80.7246L264.186 84.7566L265.43 85.5954ZM255.086 75.4982C254.062 75.8086 252.745 76.1229 251.288 76.408L251.576 77.88C253.063 77.589 254.434 77.2634 255.522 76.9338L255.086 75.4982ZM252.154 77.3462C252.606 75.7328 252.961 74.2804 253.188 73.2772L251.724 72.9468C251.503 73.9276 251.154 75.3552 250.71 76.9418L252.154 77.3462ZM252.529 72.3655L247.281 71.8535L247.135 73.3465L252.383 73.8585L252.529 72.3655ZM246.459 72.5706C246.397 74.1416 246.119 75.9121 245.682 77.5958L247.134 77.9722C247.593 76.1999 247.891 74.3224 247.957 72.6294L246.459 72.5706ZM246.35 77.0362C245.537 77.0988 244.756 77.13 243.944 77.13V78.63C244.796 78.63 245.615 78.5972 246.466 78.5318L246.35 77.0362ZM243.944 77.13C242.906 77.13 241.046 77.0666 239.609 76.9104L239.447 78.4016C240.954 78.5654 242.87 78.63 243.944 78.63V77.13ZM238.78 77.7156L239.132 82.1316L240.628 82.0124L240.276 77.5964L238.78 77.7156ZM239.831 82.8204C241.322 82.9176 242.619 82.95 243.976 82.95V81.45C242.645 81.45 241.382 81.4184 239.929 81.3236L239.831 82.8204ZM243.976 82.95C244.291 82.95 244.677 82.9505 245.068 82.9149L244.932 81.4211C244.619 81.4495 244.301 81.45 243.976 81.45V82.95ZM244.308 81.8791C242.952 85.1272 240.553 89.5099 238.112 92.546L239.28 93.486C241.831 90.3141 244.296 85.8008 245.692 82.4569L244.308 81.8791ZM238.359 93.6859L242.999 96.0219L243.673 94.6821L239.033 92.3461L238.359 93.6859ZM243.952 95.7803C246.557 92.0356 249.276 86.4655 250.768 81.9556L249.344 81.4844C247.892 85.8705 245.235 91.3084 242.72 94.9237L243.952 95.7803ZM250.167 82.4618C252.337 82.1379 254.285 81.7162 255.626 81.3564L255.238 79.9076C253.955 80.2518 252.063 80.6621 249.945 80.9782L250.167 82.4618ZM256.182 80.6103L256.054 76.1943L254.554 76.2377L254.682 80.6537L256.182 80.6103ZM254.81 93.848C254.81 94.6747 254.669 95.1915 254.439 95.4942C254.243 95.7518 253.886 95.978 253.096 95.978V97.478C254.194 97.478 255.069 97.1442 255.633 96.4018C256.163 95.7045 256.31 94.7813 256.31 93.848H254.81ZM253.096 95.978C252.548 95.978 252.174 95.8343 251.954 95.66C251.748 95.4971 251.638 95.2811 251.638 95H250.138C250.138 95.7429 250.46 96.3909 251.022 96.836C251.57 97.2697 252.3 97.478 253.096 97.478V95.978ZM251.638 95C251.638 94.8605 251.699 94.6959 251.961 94.5323C252.241 94.3574 252.722 94.214 253.416 94.214V92.714C252.542 92.714 251.759 92.8906 251.167 93.2597C250.557 93.6401 250.138 94.2435 250.138 95H251.638ZM253.416 94.214C254.09 94.214 254.776 94.3022 255.42 94.4248L255.7 92.9512C255 92.8178 254.214 92.714 253.416 92.714V94.214ZM254.81 93.688V93.848H256.31V93.688H254.81ZM254.299 83.0721C254.395 84.8584 254.523 87.4578 254.651 89.7302L256.149 89.6458C256.021 87.3742 255.893 84.7896 255.797 82.9919L254.299 83.0721ZM255.488 88.9431C254.914 88.8756 254.341 88.842 253.736 88.842V90.342C254.283 90.342 254.798 90.3724 255.312 90.4329L255.488 88.9431ZM253.736 88.842C251.151 88.842 249.114 89.5613 247.712 90.7823C246.304 92.0079 245.594 93.6902 245.594 95.48H247.094C247.094 94.1018 247.632 92.8401 248.696 91.9137C249.766 90.9827 251.425 90.342 253.736 90.342V88.842ZM245.594 95.48C245.594 97.5747 246.537 99.2063 248.067 100.288C249.57 101.351 251.6 101.862 253.8 101.862V100.362C251.808 100.362 250.11 99.8965 248.933 99.0637C247.783 98.2497 247.094 97.0653 247.094 95.48H245.594ZM253.8 101.862C256.249 101.862 258.046 101.266 259.245 100.143C260.448 99.0162 260.93 97.4696 260.982 95.8237L259.482 95.7763C259.438 97.1704 259.04 98.2798 258.219 99.0486C257.394 99.8215 256.023 100.362 253.8 100.362V101.862ZM259.804 96.4162C261.32 97.468 262.561 98.6459 263.56 99.5797L264.584 98.4843C263.599 97.5621 262.28 96.308 260.66 95.1838L259.804 96.4162ZM264.712 99.4237L267.24 95.2957L265.96 94.5123L263.432 98.6403L264.712 99.4237ZM267.113 94.3572C265.488 92.831 263.167 91.1725 260.309 90.0758L259.771 91.4762C262.417 92.4915 264.576 94.033 266.087 95.4508L267.113 94.3572ZM260.789 90.7395C260.725 89.4237 260.661 88.1808 260.629 87.4474L259.131 87.5126C259.163 88.2512 259.227 89.5043 259.291 90.8125L260.789 90.7395ZM260.63 87.4647C260.597 85.8699 260.535 84.4163 260.628 83.0842L259.132 82.9798C259.033 84.3997 259.099 85.9541 259.13 87.4953L260.63 87.4647ZM259.88 82.282H255.048V83.782H259.88V82.282ZM298.248 80.312L298.859 79.8776L298.518 79.3964L297.969 79.6156L298.248 80.312ZM295.208 81.528L294.929 80.8316L294.066 81.177L294.586 81.9476L295.208 81.528ZM297.768 86.424L297.097 86.7594L297.411 87.3865L298.057 87.1159L297.768 86.424ZM300.904 85.112L301.193 85.8039L301.934 85.4942L301.575 84.7766L300.904 85.112ZM302.184 78.744L302.808 78.328L302.467 77.8161L301.898 78.0506L302.184 78.744ZM299.08 80.024L298.794 79.3306L297.918 79.6918L298.471 80.4614L299.08 80.024ZM301.768 84.856L301.104 85.204L301.425 85.8179L302.063 85.5457L301.768 84.856ZM304.84 83.544L305.135 84.2337L305.875 83.9173L305.507 83.201L304.84 83.544ZM295.944 72.344L296.441 71.7826L295.797 71.2121L295.32 71.928L295.944 72.344ZM293.16 75.352L293.678 75.8943L293.682 75.8904L293.16 75.352ZM284.424 82.808L283.952 82.2252L283.949 82.2278L284.424 82.808ZM284.104 90.264L283.615 90.8323L283.616 90.8339L284.104 90.264ZM293.288 98.456L292.748 98.9768L292.75 98.9781L293.288 98.456ZM296.392 101.752L295.831 102.25L296.341 102.823L296.902 102.302L296.392 101.752ZM300.872 97.592L301.382 98.1416L301.968 97.5981L301.388 97.0481L300.872 97.592ZM289.384 87.928L289.878 87.3641L289.878 87.3636L289.384 87.928ZM289.352 84.952L289.84 85.5215L289.845 85.5176L289.352 84.952ZM297.288 78.68L297.741 79.2777L297.748 79.272L297.288 78.68ZM300.424 76.312L300.866 76.9178L301.619 76.3685L300.921 75.7506L300.424 76.312ZM297.969 79.6156L294.929 80.8316L295.487 82.2244L298.527 81.0084L297.969 79.6156ZM294.586 81.9476C295.414 83.1736 296.396 85.3571 297.097 86.7594L298.439 86.0886C297.796 84.8029 296.73 82.4424 295.83 81.1084L294.586 81.9476ZM298.057 87.1159L301.193 85.8039L300.615 84.4201L297.479 85.7321L298.057 87.1159ZM301.575 84.7766C301.011 83.6482 299.765 81.1524 298.859 79.8776L297.637 80.7464C298.459 81.9036 299.645 84.2718 300.233 85.4474L301.575 84.7766ZM301.898 78.0506L298.794 79.3306L299.366 80.7174L302.47 79.4374L301.898 78.0506ZM298.471 80.4614C299.326 81.6527 300.374 83.8115 301.104 85.204L302.432 84.508C301.754 83.2125 300.626 80.8913 299.689 79.5866L298.471 80.4614ZM302.063 85.5457L305.135 84.2337L304.545 82.8543L301.473 84.1663L302.063 85.5457ZM305.507 83.201C304.94 82.0989 303.669 79.6201 302.808 78.328L301.56 79.16C302.363 80.3639 303.588 82.7491 304.173 83.887L305.507 83.201ZM295.32 71.928C294.799 72.7092 293.719 73.7648 292.638 74.8136L293.682 75.8904C294.713 74.8912 295.937 73.7068 296.568 72.76L295.32 71.928ZM292.642 74.8097C290.524 76.8331 286.484 80.1743 283.952 82.2252L284.896 83.3908C287.42 81.3457 291.508 77.9669 293.678 75.8943L292.642 74.8097ZM283.949 82.2278C282.259 83.6115 281.126 84.9622 281.043 86.4831C280.958 88.0328 281.974 89.4193 283.615 90.8322L284.593 89.6958C283.002 88.3247 282.498 87.3592 282.541 86.5649C282.586 85.7418 283.229 84.7565 284.899 83.3882L283.949 82.2278ZM283.616 90.8339C286.512 93.3115 291.02 97.1856 292.748 98.9768L293.828 97.9352C292.036 96.0784 287.456 92.1445 284.592 89.6941L283.616 90.8339ZM292.75 98.9781C293.775 100.036 294.82 101.112 295.831 102.25L296.953 101.254C295.916 100.088 294.849 98.9879 293.826 97.9339L292.75 98.9781ZM296.902 102.302L301.382 98.1416L300.362 97.0424L295.882 101.202L296.902 102.302ZM301.388 97.0481C299.781 95.5222 297.408 93.5455 295.195 91.7354C292.964 89.9112 290.906 88.2648 289.878 87.3641L288.89 88.4919C289.942 89.4152 292.044 91.0968 294.245 92.8966C296.464 94.7105 298.795 96.6538 300.356 98.1359L301.388 97.0481ZM289.878 87.3636C289.491 87.0251 289.241 86.7906 289.087 86.6049C288.93 86.417 288.952 86.3736 288.954 86.4179C288.955 86.4713 288.923 86.4401 289.064 86.2649C289.207 86.0874 289.449 85.8568 289.84 85.5214L288.864 84.3826C288.471 84.7192 288.133 85.0286 287.895 85.3251C287.655 85.6239 287.441 86.0007 287.454 86.462C287.468 86.9144 287.696 87.279 287.934 87.5651C288.175 87.8534 288.509 88.1589 288.89 88.4924L289.878 87.3636ZM289.845 85.5176C291.806 83.8096 295.752 80.7859 297.741 79.2777L296.835 78.0823C294.856 79.5821 290.866 82.6384 288.859 84.3864L289.845 85.5176ZM297.748 79.272C298.609 78.603 299.69 77.7759 300.866 76.9178L299.982 75.7062C298.79 76.5761 297.695 77.413 296.828 78.088L297.748 79.272ZM300.921 75.7506L296.441 71.7826L295.447 72.9054L299.927 76.8734L300.921 75.7506Z" fill="white"/>
<path d="M18.592 22.184V19.144C19.168 18.28 19.712 17.384 20.224 16.488H30.08V11.72H1.984V16.488H14.048C11.168 21.16 6.464 25.8 0.864 28.36C1.856 29.416 3.328 31.368 4.064 32.616C7.584 30.792 10.752 28.328 13.472 25.512V39.976H18.592V24.296C21.792 26.984 25.664 30.376 27.456 32.648L31.456 29.064C29.152 26.472 24.192 22.728 20.96 20.2L18.592 22.184ZM51.232 33.448H56.8C56.64 33.704 56.48 33.928 56.32 34.152C54.624 34.28 52.928 34.408 51.232 34.536V33.448ZM45.44 26.568V25.608H47.04V26.568H45.44ZM45.44 22.024H47.04V22.984H45.44V22.024ZM52.8 22.024V22.984H51.232V22.024H52.8ZM52.8 26.568H51.232V25.608H52.8V26.568ZM64.192 16.744C64.224 14.696 64.224 12.52 64.224 10.248H59.776C59.776 12.552 59.776 14.728 59.776 16.744H57.152V21H59.68C59.456 26.152 58.816 30.248 56.8 33.448V30.216H51.232V29.384H56.608V19.208H51.232V18.408H57.024V15.112H51.232V13.992C53.216 13.768 55.104 13.512 56.768 13.16L54.816 9.736C51.168 10.504 45.76 11.048 40.96 11.272C41.376 12.168 41.824 13.608 41.952 14.536C43.584 14.504 45.312 14.44 47.04 14.344V15.112H41.024V18.408H47.04V19.208H41.792V29.384H47.04V30.216H41.664V33.448H47.04V34.824C44.672 34.984 42.528 35.112 40.768 35.208L41.28 39.048C45.024 38.728 50.016 38.28 54.88 37.8C55.68 38.6 56.512 39.592 56.928 40.328C62.176 36.072 63.616 29.64 64.064 21H66.016C65.856 30.6 65.6 34.344 64.992 35.176C64.672 35.624 64.384 35.752 63.904 35.752C63.264 35.752 62.176 35.752 60.896 35.624C61.632 36.872 62.144 38.76 62.24 40.04C63.776 40.072 65.248 40.072 66.272 39.848C67.392 39.592 68.192 39.208 68.992 37.992C70.016 36.488 70.24 31.688 70.496 18.728C70.496 18.184 70.528 16.744 70.528 16.744H64.192ZM96.832 28.168V30.056H91.232C91.744 29.512 92.224 28.872 92.672 28.168H96.832ZM99.776 15.592C99.552 16.52 99.232 17.512 98.944 18.312H93.12L93.6 18.184C93.472 17.448 93.12 16.488 92.704 15.592H99.776ZM87.744 22.28H110.688V18.312H103.52C104.032 17.512 104.64 16.584 105.248 15.592H109.088V11.688H98.464V9.608H93.792V11.688H83.136V15.592H88.192L87.936 15.656C88.32 16.456 88.672 17.448 88.896 18.312H83.296V23.624C83.296 27.464 83.072 33.096 80.416 36.968C81.344 37.48 83.296 39.112 84 39.944C86.144 36.904 87.104 32.584 87.488 28.648C88.416 29.128 89.664 29.864 90.432 30.44V33.544H96.832V35.656H88.064V39.464H110.4V35.656H101.408V33.544H107.872V30.056H101.408V28.168H108.8V24.648H101.408V22.568H96.832V24.648H94.624C94.816 24.2 94.976 23.784 95.136 23.336L91.008 22.376C90.336 24.424 89.088 26.504 87.552 27.944C87.712 26.408 87.744 24.936 87.744 23.656V22.28ZM142.176 16.456L142.144 14.6C142.112 13.512 142.176 12.104 142.336 11.016H136.864C137.056 12.264 137.152 13.576 137.216 14.6L137.312 16.456H127.328C126.176 16.456 124.352 16.328 123.456 16.2V21.32C124.64 21.256 126.24 21.192 127.456 21.192H135.104C132.544 24.712 127.488 28.744 121.44 31.592L124.992 35.624C129.664 33.16 134.656 29.096 137.536 25.448C137.568 28.136 137.568 30.568 137.568 32.456C137.568 33.384 137.248 33.8 136.512 33.8C135.488 33.8 133.792 33.672 132.384 33.448L132.832 38.472C134.784 38.6 136.512 38.664 138.624 38.664C141.344 38.664 142.624 37.32 142.592 35.048C142.528 30.568 142.4 25.768 142.304 21.192H145.856C146.752 21.192 148.064 21.224 149.216 21.256V16.168C148.384 16.296 146.72 16.456 145.568 16.456H142.176ZM162.752 27.752C164.064 27.656 166.464 27.56 168.288 27.56H185.28C186.592 27.56 188.384 27.72 189.216 27.752V21.64C188.288 21.704 186.72 21.864 185.28 21.864H168.288C166.72 21.864 164.032 21.736 162.752 21.64V27.752ZM219.552 18.504V15.464C219.552 14.44 219.616 12.584 219.84 11.368H213.696C214.048 12.584 214.176 14.312 214.176 15.432V18.504H206.496C205.12 18.504 203.744 18.376 202.592 18.248V23.624C203.776 23.528 205.12 23.432 206.624 23.432H214.112C213.728 28.296 211.776 32.712 205.44 35.56L210.272 39.144C217.344 34.856 219.232 29.544 219.52 23.432H225.984C227.424 23.432 229.152 23.528 229.92 23.592V18.28C229.152 18.376 227.712 18.504 226.016 18.504H219.552ZM242.752 27.752C244.064 27.656 246.464 27.56 248.288 27.56H265.28C266.592 27.56 268.384 27.72 269.216 27.752V21.64C268.288 21.704 266.72 21.864 265.28 21.864H248.288C246.72 21.864 244.032 21.736 242.752 21.64V27.752ZM303.616 14.152C302.688 14.92 301.664 15.528 300.32 16.296C298.944 17.096 296.544 18.344 294.208 19.688C292.96 17.32 291.552 14.44 290.4 11.24L285.568 13.192C286.976 16.52 288.448 19.752 289.92 22.472C287.008 24.68 284.768 27.272 284.768 30.888C284.768 36.744 289.792 38.504 296.32 38.504C300.544 38.504 303.712 38.184 306.592 37.704L306.656 32.168C303.648 32.84 299.328 33.384 296.192 33.384C292.128 33.384 290.112 32.392 290.112 30.312C290.112 28.232 291.872 26.536 294.336 24.936C297.12 23.144 300.832 21.448 302.72 20.52C304 19.88 305.152 19.272 306.272 18.6L303.616 14.152Z" fill="white"/>
</svg>
