<svg width="12" height="12" viewBox="0 0 12 12" fill="none" xmlns="http://www.w3.org/2000/svg">
<path id="Vector" d="M0 12V2.66667H2.66667V0H9.33333V5.33333H12V12H6.66667V9.33333H5.33333V12H0ZM1.33333 10.6667H2.66667V9.33333H1.33333V10.6667ZM1.33333 8H2.66667V6.66667H1.33333V8ZM1.33333 5.33333H2.66667V4H1.33333V5.33333ZM4 8H5.33333V6.66667H4V8ZM4 5.33333H5.33333V4H4V5.33333ZM4 2.66667H5.33333V1.33333H4V2.66667ZM6.66667 8H8V6.66667H6.66667V8ZM6.66667 5.33333H8V4H6.66667V5.33333ZM6.66667 2.66667H8V1.33333H6.66667V2.66667ZM9.33333 10.6667H10.6667V9.33333H9.33333V10.6667ZM9.33333 8H10.6667V6.66667H9.33333V8Z" fill="#2B2B2B"/>
</svg>
