<svg width="30" height="30" viewBox="0 0 30 30" fill="none" xmlns="http://www.w3.org/2000/svg">
<path fill-rule="evenodd" clip-rule="evenodd" d="M0 15C0 6.71573 6.71573 0 15 0C23.2843 0 30 6.71573 30 15C30 23.2843 23.2843 30 15 30C6.71573 30 0 23.2843 0 15Z" fill="white"/>
<path d="M16.9263 14.351L22.5101 8H21.1873L16.339 13.5147L12.4668 8H8L13.8558 16.3392L8 23H9.32282L14.4432 17.1767L18.5332 23H23L16.9275 14.351H16.9263ZM15.1136 16.4122L14.5202 15.5819L9.79947 8.97527H11.8325L15.642 14.3074L16.2354 15.1378L21.1873 22.0695H19.1543L15.1136 16.4134V16.4122Z" fill="black"/>
</svg>
