<svg id="グループ_2" data-name="グループ 2" xmlns="http://www.w3.org/2000/svg" width="30" height="30" viewBox="0 0 30 30">
  <path id="パス_6" data-name="パス 6" d="M15,0A15,15,0,1,0,30,15,15,15,0,0,0,15,0ZM11.7,7.048C12.556,7.01,12.828,7,15,7h0c2.173,0,2.445.01,3.3.048a5.889,5.889,0,0,1,1.943.372,4.093,4.093,0,0,1,2.34,2.34,5.926,5.926,0,0,1,.372,1.942c.038.853.048,1.126.048,3.3s-.01,2.445-.048,3.3a5.928,5.928,0,0,1-.372,1.942,4.1,4.1,0,0,1-2.34,2.34,5.88,5.88,0,0,1-1.943.372c-.853.039-1.125.048-3.3.048s-2.445-.01-3.3-.048A5.877,5.877,0,0,1,9.76,22.58,4.094,4.094,0,0,1,7.42,20.24,5.88,5.88,0,0,1,7.049,18.3C7.01,17.445,7,17.173,7,15s.01-2.446.048-3.3A5.844,5.844,0,0,1,7.42,9.76,4.092,4.092,0,0,1,9.761,7.42,5.871,5.871,0,0,1,11.7,7.048Z" fill="#000" fill-rule="evenodd"/>
  <path id="パス_7" data-name="パス 7" d="M14.283,8.442H15c2.136,0,2.389.008,3.233.046a4.429,4.429,0,0,1,1.485.275,2.651,2.651,0,0,1,1.518,1.518,4.421,4.421,0,0,1,.275,1.485c.038.843.047,1.1.047,3.232s-.008,2.388-.047,3.232a4.426,4.426,0,0,1-.275,1.485,2.653,2.653,0,0,1-1.518,1.517,4.414,4.414,0,0,1-1.485.276c-.843.038-1.1.047-3.233.047s-2.389-.008-3.233-.047a4.438,4.438,0,0,1-1.486-.276,2.651,2.651,0,0,1-1.519-1.518,4.42,4.42,0,0,1-.276-1.485c-.038-.843-.046-1.1-.046-3.233s.008-2.388.046-3.232a4.43,4.43,0,0,1,.276-1.485,2.651,2.651,0,0,1,1.519-1.519,4.419,4.419,0,0,1,1.486-.276c.738-.033,1.024-.043,2.515-.045ZM19.271,9.77a.96.96,0,1,0,.96.96.96.96,0,0,0-.96-.96ZM10.892,15A4.108,4.108,0,1,1,15,19.108,4.109,4.109,0,0,1,10.892,15Z" fill="#000" fill-rule="evenodd"/>
  <path id="パス_8" data-name="パス 8" d="M15,12.333A2.667,2.667,0,1,1,12.334,15,2.667,2.667,0,0,1,15,12.333Z" fill="#000" fill-rule="evenodd"/>
</svg>
