<svg id="グループ_1" data-name="グループ 1" xmlns="http://www.w3.org/2000/svg" width="30" height="30" viewBox="0 0 30 30">
  <path id="パス_4" data-name="パス 4" d="M15,0A15,15,0,1,0,30,15,15,15,0,0,0,15,0Zm6.251,9.843A2.031,2.031,0,0,1,22.666,11.3,21.935,21.935,0,0,1,23,15.25a21.935,21.935,0,0,1-.334,3.954,2.032,2.032,0,0,1-1.415,1.452A46.577,46.577,0,0,1,15,21a46.579,46.579,0,0,1-6.251-.343A2.031,2.031,0,0,1,7.334,19.2,21.943,21.943,0,0,1,7,15.25,21.944,21.944,0,0,1,7.334,11.3,2.031,2.031,0,0,1,8.749,9.843,46.575,46.575,0,0,1,15,9.5,46.573,46.573,0,0,1,21.251,9.843Z" fill="#fff" fill-rule="evenodd"/>
  <path id="パス_5" data-name="パス 5" d="M13.5,18V13l4,2.5Z" fill="#fff" fill-rule="evenodd"/>
</svg>
