<svg width="15" height="15" viewBox="0 0 15 15" fill="none" xmlns="http://www.w3.org/2000/svg">
<path d="M3.58954 6.782C4.14154 7.838 4.84354 8.792 5.69554 9.644C6.54754 10.496 7.50154 11.198 8.55754 11.75L10.2135 10.094C10.3095 9.986 10.4295 9.914 10.5735 9.878C10.7175 9.842 10.8555 9.854 10.9875 9.914C11.7795 10.19 12.6675 10.328 13.6515 10.328C13.8555 10.328 14.0295 10.4 14.1735 10.544C14.3175 10.688 14.3895 10.862 14.3895 11.066V13.712C14.3895 13.916 14.3175 14.09 14.1735 14.234C14.0295 14.378 13.8555 14.45 13.6515 14.45C11.9235 14.45 10.2675 14.114 8.68354 13.442C7.15954 12.794 5.80954 11.882 4.63354 10.706C3.45754 9.53 2.54554 8.18 1.89754 6.656C1.22554 5.072 0.889536 3.416 0.889536 1.688C0.889536 1.484 0.961536 1.31 1.10554 1.166C1.24954 1.022 1.42354 0.95 1.62754 0.95H4.27354C4.47754 0.95 4.65154 1.022 4.79554 1.166C4.93954 1.31 5.01154 1.484 5.01154 1.688C5.01154 2.672 5.14954 3.56 5.42554 4.352C5.46154 4.484 5.46754 4.622 5.44354 4.766C5.41954 4.91 5.35354 5.03 5.24554 5.126L3.58954 6.782Z" fill="#1B1B1B"/>
</svg>
