<svg width="264" height="40" viewBox="0 0 264 40" fill="none" xmlns="http://www.w3.org/2000/svg">
<path d="M68.478 28H65.046L62.384 17.308H62.34L59.722 28H56.224L52.066 12.292H55.52L58.006 22.984H58.05L60.778 12.292H64.012L66.696 23.116H66.74L69.314 12.292H72.702L68.478 28ZM80.3733 21.092C80.2266 20.3 79.9626 19.6987 79.5813 19.288C79.2146 18.8773 78.65 18.672 77.8873 18.672C77.3886 18.672 76.9706 18.76 76.6333 18.936C76.3106 19.0973 76.0466 19.3027 75.8413 19.552C75.6506 19.8013 75.5113 20.0653 75.4233 20.344C75.35 20.6227 75.306 20.872 75.2913 21.092H80.3733ZM75.2913 23.072C75.3353 24.084 75.592 24.8173 76.0613 25.272C76.5306 25.7267 77.2053 25.954 78.0853 25.954C78.716 25.954 79.2586 25.8 79.7133 25.492C80.168 25.1693 80.4466 24.832 80.5493 24.48H83.2993C82.8593 25.844 82.1846 26.8193 81.2753 27.406C80.366 27.9927 79.266 28.286 77.9753 28.286C77.0806 28.286 76.274 28.1467 75.5553 27.868C74.8366 27.5747 74.228 27.164 73.7293 26.636C73.2306 26.108 72.842 25.4773 72.5633 24.744C72.2993 24.0107 72.1673 23.204 72.1673 22.324C72.1673 21.4733 72.3066 20.6813 72.5853 19.948C72.864 19.2147 73.26 18.584 73.7733 18.056C74.2866 17.5133 74.8953 17.088 75.5993 16.78C76.318 16.472 77.11 16.318 77.9753 16.318C78.9433 16.318 79.7866 16.5087 80.5053 16.89C81.224 17.2567 81.8106 17.7553 82.2653 18.386C82.7346 19.0167 83.072 19.7353 83.2773 20.542C83.4826 21.3487 83.556 22.192 83.4973 23.072H75.2913ZM85.2181 20.124C85.2621 19.3907 85.4454 18.782 85.7681 18.298C86.0908 17.814 86.5014 17.4253 87.0001 17.132C87.4988 16.8387 88.0561 16.6333 88.6721 16.516C89.3028 16.384 89.9334 16.318 90.5641 16.318C91.1361 16.318 91.7154 16.362 92.3021 16.45C92.8888 16.5233 93.4241 16.6773 93.9081 16.912C94.3921 17.1467 94.7881 17.4767 95.0961 17.902C95.4041 18.3127 95.5581 18.8627 95.5581 19.552V25.47C95.5581 25.9833 95.5874 26.4747 95.6461 26.944C95.7048 27.4133 95.8074 27.7653 95.9541 28H92.7861C92.7274 27.824 92.6761 27.648 92.6321 27.472C92.6028 27.2813 92.5808 27.0907 92.5661 26.9C92.0674 27.4133 91.4808 27.7727 90.8061 27.978C90.1314 28.1833 89.4421 28.286 88.7381 28.286C88.1954 28.286 87.6894 28.22 87.2201 28.088C86.7508 27.956 86.3401 27.7507 85.9881 27.472C85.6361 27.1933 85.3574 26.8413 85.1521 26.416C84.9614 25.9907 84.8661 25.4847 84.8661 24.898C84.8661 24.2527 84.9761 23.7247 85.1961 23.314C85.4308 22.8887 85.7241 22.5513 86.0761 22.302C86.4428 22.0527 86.8534 21.8693 87.3081 21.752C87.7774 21.62 88.2468 21.5173 88.7161 21.444C89.1854 21.3707 89.6474 21.312 90.1021 21.268C90.5568 21.224 90.9601 21.158 91.3121 21.07C91.6641 20.982 91.9428 20.8573 92.1481 20.696C92.3534 20.52 92.4488 20.2707 92.4341 19.948C92.4341 19.6107 92.3754 19.3467 92.2581 19.156C92.1554 18.9507 92.0088 18.7967 91.8181 18.694C91.6421 18.5767 91.4294 18.5033 91.1801 18.474C90.9454 18.43 90.6888 18.408 90.4101 18.408C89.7941 18.408 89.3101 18.54 88.9581 18.804C88.6061 19.068 88.4008 19.508 88.3421 20.124H85.2181ZM92.4341 22.434C92.3021 22.5513 92.1334 22.6467 91.9281 22.72C91.7374 22.7787 91.5248 22.83 91.2901 22.874C91.0701 22.918 90.8354 22.9547 90.5861 22.984C90.3368 23.0133 90.0874 23.05 89.8381 23.094C89.6034 23.138 89.3688 23.1967 89.1341 23.27C88.9141 23.3433 88.7161 23.446 88.5401 23.578C88.3788 23.6953 88.2468 23.8493 88.1441 24.04C88.0414 24.2307 87.9901 24.4727 87.9901 24.766C87.9901 25.0447 88.0414 25.2793 88.1441 25.47C88.2468 25.6607 88.3861 25.8147 88.5621 25.932C88.7381 26.0347 88.9434 26.108 89.1781 26.152C89.4128 26.196 89.6548 26.218 89.9041 26.218C90.5201 26.218 90.9968 26.1153 91.3341 25.91C91.6714 25.7047 91.9208 25.4627 92.0821 25.184C92.2434 24.8907 92.3388 24.5973 92.3681 24.304C92.4121 24.0107 92.4341 23.776 92.4341 23.6V22.434ZM98.0709 12.292H101.195V28H98.0709V12.292ZM107.615 16.626H109.903V18.716H107.615V24.348C107.615 24.876 107.703 25.228 107.879 25.404C108.055 25.58 108.407 25.668 108.935 25.668C109.111 25.668 109.279 25.6607 109.441 25.646C109.602 25.6313 109.756 25.6093 109.903 25.58V28C109.639 28.044 109.345 28.0733 109.023 28.088C108.7 28.1027 108.385 28.11 108.077 28.11C107.593 28.11 107.131 28.0733 106.691 28C106.265 27.9413 105.884 27.8167 105.547 27.626C105.224 27.4353 104.967 27.164 104.777 26.812C104.586 26.46 104.491 25.998 104.491 25.426V18.716H102.599V16.626H104.491V13.216H107.615V16.626ZM111.389 12.292H114.513V18.21H114.579C114.975 17.55 115.481 17.0733 116.097 16.78C116.713 16.472 117.315 16.318 117.901 16.318C118.737 16.318 119.419 16.4353 119.947 16.67C120.49 16.89 120.915 17.2053 121.223 17.616C121.531 18.012 121.744 18.5033 121.861 19.09C121.993 19.662 122.059 20.3 122.059 21.004V28H118.935V21.576C118.935 20.6373 118.789 19.9407 118.495 19.486C118.202 19.0167 117.681 18.782 116.933 18.782C116.083 18.782 115.467 19.0387 115.085 19.552C114.704 20.0507 114.513 20.8793 114.513 22.038V28H111.389V12.292ZM128.214 19.684H130.898C131.294 19.684 131.676 19.6547 132.042 19.596C132.409 19.5373 132.732 19.4273 133.01 19.266C133.289 19.09 133.509 18.848 133.67 18.54C133.846 18.232 133.934 17.8287 133.934 17.33C133.934 16.8313 133.846 16.428 133.67 16.12C133.509 15.812 133.289 15.5773 133.01 15.416C132.732 15.24 132.409 15.1227 132.042 15.064C131.676 15.0053 131.294 14.976 130.898 14.976H128.214V19.684ZM124.76 12.292H131.844C132.827 12.292 133.663 12.4387 134.352 12.732C135.042 13.0107 135.599 13.3847 136.024 13.854C136.464 14.3233 136.78 14.8587 136.97 15.46C137.176 16.0613 137.278 16.6847 137.278 17.33C137.278 17.9607 137.176 18.584 136.97 19.2C136.78 19.8013 136.464 20.3367 136.024 20.806C135.599 21.2753 135.042 21.6567 134.352 21.95C133.663 22.2287 132.827 22.368 131.844 22.368H128.214V28H124.76V12.292ZM138.972 20.124C139.016 19.3907 139.199 18.782 139.522 18.298C139.845 17.814 140.255 17.4253 140.754 17.132C141.253 16.8387 141.81 16.6333 142.426 16.516C143.057 16.384 143.687 16.318 144.318 16.318C144.89 16.318 145.469 16.362 146.056 16.45C146.643 16.5233 147.178 16.6773 147.662 16.912C148.146 17.1467 148.542 17.4767 148.85 17.902C149.158 18.3127 149.312 18.8627 149.312 19.552V25.47C149.312 25.9833 149.341 26.4747 149.4 26.944C149.459 27.4133 149.561 27.7653 149.708 28H146.54C146.481 27.824 146.43 27.648 146.386 27.472C146.357 27.2813 146.335 27.0907 146.32 26.9C145.821 27.4133 145.235 27.7727 144.56 27.978C143.885 28.1833 143.196 28.286 142.492 28.286C141.949 28.286 141.443 28.22 140.974 28.088C140.505 27.956 140.094 27.7507 139.742 27.472C139.39 27.1933 139.111 26.8413 138.906 26.416C138.715 25.9907 138.62 25.4847 138.62 24.898C138.62 24.2527 138.73 23.7247 138.95 23.314C139.185 22.8887 139.478 22.5513 139.83 22.302C140.197 22.0527 140.607 21.8693 141.062 21.752C141.531 21.62 142.001 21.5173 142.47 21.444C142.939 21.3707 143.401 21.312 143.856 21.268C144.311 21.224 144.714 21.158 145.066 21.07C145.418 20.982 145.697 20.8573 145.902 20.696C146.107 20.52 146.203 20.2707 146.188 19.948C146.188 19.6107 146.129 19.3467 146.012 19.156C145.909 18.9507 145.763 18.7967 145.572 18.694C145.396 18.5767 145.183 18.5033 144.934 18.474C144.699 18.43 144.443 18.408 144.164 18.408C143.548 18.408 143.064 18.54 142.712 18.804C142.36 19.068 142.155 19.508 142.096 20.124H138.972ZM146.188 22.434C146.056 22.5513 145.887 22.6467 145.682 22.72C145.491 22.7787 145.279 22.83 145.044 22.874C144.824 22.918 144.589 22.9547 144.34 22.984C144.091 23.0133 143.841 23.05 143.592 23.094C143.357 23.138 143.123 23.1967 142.888 23.27C142.668 23.3433 142.47 23.446 142.294 23.578C142.133 23.6953 142.001 23.8493 141.898 24.04C141.795 24.2307 141.744 24.4727 141.744 24.766C141.744 25.0447 141.795 25.2793 141.898 25.47C142.001 25.6607 142.14 25.8147 142.316 25.932C142.492 26.0347 142.697 26.108 142.932 26.152C143.167 26.196 143.409 26.218 143.658 26.218C144.274 26.218 144.751 26.1153 145.088 25.91C145.425 25.7047 145.675 25.4627 145.836 25.184C145.997 24.8907 146.093 24.5973 146.122 24.304C146.166 24.0107 146.188 23.776 146.188 23.6V22.434ZM151.737 16.626H154.707V18.738H154.751C154.897 18.386 155.095 18.0633 155.345 17.77C155.594 17.462 155.88 17.2053 156.203 17C156.525 16.78 156.87 16.6113 157.237 16.494C157.603 16.3767 157.985 16.318 158.381 16.318C158.586 16.318 158.813 16.3547 159.063 16.428V19.332C158.916 19.3027 158.74 19.2807 158.535 19.266C158.329 19.2367 158.131 19.222 157.941 19.222C157.369 19.222 156.885 19.3173 156.489 19.508C156.093 19.6987 155.77 19.9627 155.521 20.3C155.286 20.6227 155.117 21.004 155.015 21.444C154.912 21.884 154.861 22.3607 154.861 22.874V28H151.737V16.626ZM160.574 12.292H163.698V20.718L167.636 16.626H171.332L167.042 20.806L171.816 28H168.032L164.908 22.918L163.698 24.084V28H160.574V12.292ZM180.935 19.178H186.083C186.685 19.178 187.205 19.112 187.645 18.98C188.085 18.8333 188.452 18.6427 188.745 18.408C189.039 18.1587 189.259 17.8727 189.405 17.55C189.552 17.2273 189.625 16.8827 189.625 16.516C189.625 14.5507 188.445 13.568 186.083 13.568H180.935V19.178ZM179.439 12.292H186.083C186.743 12.292 187.374 12.358 187.975 12.49C188.591 12.6073 189.127 12.82 189.581 13.128C190.051 13.4213 190.425 13.8173 190.703 14.316C190.982 14.8 191.121 15.4087 191.121 16.142C191.121 16.5527 191.055 16.956 190.923 17.352C190.791 17.7333 190.601 18.0853 190.351 18.408C190.117 18.716 189.831 18.98 189.493 19.2C189.171 19.42 188.804 19.574 188.393 19.662V19.706C189.405 19.838 190.212 20.256 190.813 20.96C191.415 21.6493 191.715 22.5073 191.715 23.534C191.715 23.7833 191.693 24.0693 191.649 24.392C191.605 24.7 191.517 25.0227 191.385 25.36C191.253 25.6827 191.063 26.0053 190.813 26.328C190.564 26.6507 190.227 26.9367 189.801 27.186C189.391 27.4207 188.877 27.6187 188.261 27.78C187.66 27.9267 186.934 28 186.083 28H179.439V12.292ZM180.935 26.724H186.083C186.641 26.724 187.169 26.68 187.667 26.592C188.166 26.4893 188.606 26.3133 188.987 26.064C189.369 25.8147 189.669 25.4847 189.889 25.074C190.109 24.6487 190.219 24.1207 190.219 23.49C190.219 22.478 189.86 21.7227 189.141 21.224C188.437 20.7107 187.418 20.454 186.083 20.454H180.935V26.724ZM203.045 28H201.769V25.954H201.725C201.359 26.7167 200.823 27.3033 200.119 27.714C199.43 28.11 198.66 28.308 197.809 28.308C197.091 28.308 196.475 28.2053 195.961 28C195.463 27.8093 195.052 27.5307 194.729 27.164C194.421 26.7973 194.194 26.35 194.047 25.822C193.901 25.294 193.827 24.6927 193.827 24.018V16.648H195.213V24.04C195.243 25.0667 195.477 25.844 195.917 26.372C196.372 26.9 197.149 27.164 198.249 27.164C198.851 27.164 199.364 27.0393 199.789 26.79C200.215 26.526 200.567 26.1813 200.845 25.756C201.124 25.3307 201.329 24.8467 201.461 24.304C201.593 23.7467 201.659 23.182 201.659 22.61V16.648H203.045V28ZM212.464 19.97C212.449 19.5447 212.361 19.178 212.2 18.87C212.038 18.5473 211.818 18.2833 211.54 18.078C211.276 17.8727 210.968 17.726 210.616 17.638C210.264 17.5353 209.89 17.484 209.494 17.484C209.186 17.484 208.87 17.5207 208.548 17.594C208.24 17.6527 207.954 17.7627 207.69 17.924C207.426 18.0707 207.213 18.2687 207.052 18.518C206.89 18.7673 206.81 19.0753 206.81 19.442C206.81 19.75 206.883 20.014 207.03 20.234C207.191 20.4393 207.389 20.6153 207.624 20.762C207.858 20.9087 208.115 21.0333 208.394 21.136C208.672 21.224 208.929 21.2973 209.164 21.356L211.012 21.774C211.408 21.8327 211.796 21.9427 212.178 22.104C212.574 22.2507 212.918 22.4487 213.212 22.698C213.52 22.9473 213.769 23.2553 213.96 23.622C214.15 23.9887 214.246 24.4213 214.246 24.92C214.246 25.536 214.106 26.064 213.828 26.504C213.549 26.9293 213.19 27.2813 212.75 27.56C212.324 27.824 211.84 28.0147 211.298 28.132C210.755 28.2493 210.22 28.308 209.692 28.308C208.357 28.308 207.272 27.9927 206.436 27.362C205.614 26.7313 205.145 25.7193 205.028 24.326H206.414C206.472 25.2647 206.81 25.976 207.426 26.46C208.056 26.9293 208.834 27.164 209.758 27.164C210.095 27.164 210.44 27.1273 210.792 27.054C211.158 26.9807 211.496 26.856 211.804 26.68C212.112 26.504 212.361 26.284 212.552 26.02C212.757 25.7413 212.86 25.404 212.86 25.008C212.86 24.6707 212.786 24.392 212.64 24.172C212.508 23.9373 212.324 23.7467 212.09 23.6C211.855 23.4387 211.584 23.3067 211.276 23.204C210.982 23.1013 210.682 23.0133 210.374 22.94L208.592 22.544C208.137 22.4267 207.719 22.2947 207.338 22.148C206.956 21.9867 206.619 21.796 206.326 21.576C206.047 21.3413 205.827 21.0627 205.666 20.74C205.504 20.4027 205.424 19.992 205.424 19.508C205.424 18.936 205.548 18.4447 205.798 18.034C206.062 17.6233 206.399 17.2933 206.81 17.044C207.22 16.7947 207.675 16.6113 208.174 16.494C208.687 16.3767 209.193 16.318 209.692 16.318C210.264 16.318 210.792 16.3913 211.276 16.538C211.774 16.6847 212.207 16.912 212.574 17.22C212.955 17.528 213.256 17.9093 213.476 18.364C213.696 18.8187 213.82 19.354 213.85 19.97H212.464ZM216.28 12.292H217.666V14.514H216.28V12.292ZM216.28 16.648H217.666V28H216.28V16.648ZM220.296 16.648H221.682V18.606H221.726C221.99 17.9167 222.459 17.3667 223.134 16.956C223.809 16.5307 224.549 16.318 225.356 16.318C226.148 16.318 226.808 16.4207 227.336 16.626C227.879 16.8313 228.311 17.1247 228.634 17.506C228.957 17.8727 229.184 18.3273 229.316 18.87C229.448 19.4127 229.514 20.0213 229.514 20.696V28H228.128V20.916C228.128 20.432 228.084 19.9847 227.996 19.574C227.908 19.1487 227.754 18.782 227.534 18.474C227.314 18.166 227.013 17.924 226.632 17.748C226.265 17.572 225.803 17.484 225.246 17.484C224.689 17.484 224.19 17.5867 223.75 17.792C223.325 17.9827 222.958 18.254 222.65 18.606C222.357 18.9433 222.122 19.354 221.946 19.838C221.785 20.3073 221.697 20.8207 221.682 21.378V28H220.296V16.648ZM240.296 21.532C240.282 21.004 240.186 20.498 240.01 20.014C239.849 19.53 239.614 19.1047 239.306 18.738C238.998 18.3567 238.624 18.056 238.184 17.836C237.744 17.6013 237.246 17.484 236.688 17.484C236.116 17.484 235.61 17.6013 235.17 17.836C234.73 18.056 234.356 18.3567 234.048 18.738C233.74 19.1047 233.491 19.5373 233.3 20.036C233.124 20.52 233.007 21.0187 232.948 21.532H240.296ZM232.948 22.698C232.948 23.1967 233.014 23.7173 233.146 24.26C233.293 24.788 233.52 25.2647 233.828 25.69C234.136 26.1153 234.525 26.4673 234.994 26.746C235.464 27.0247 236.028 27.164 236.688 27.164C237.7 27.164 238.492 26.9 239.064 26.372C239.636 25.844 240.032 25.14 240.252 24.26H241.638C241.345 25.5507 240.802 26.548 240.01 27.252C239.233 27.956 238.126 28.308 236.688 28.308C235.794 28.308 235.016 28.154 234.356 27.846C233.711 27.5233 233.183 27.0907 232.772 26.548C232.362 25.9907 232.054 25.3527 231.848 24.634C231.658 23.9007 231.562 23.1307 231.562 22.324C231.562 21.576 231.658 20.8427 231.848 20.124C232.054 19.4053 232.362 18.7673 232.772 18.21C233.183 17.638 233.711 17.1833 234.356 16.846C235.016 16.494 235.794 16.318 236.688 16.318C237.598 16.318 238.375 16.5013 239.02 16.868C239.666 17.2347 240.186 17.7187 240.582 18.32C240.993 18.9067 241.286 19.5887 241.462 20.366C241.638 21.1287 241.712 21.906 241.682 22.698H232.948ZM250.341 19.97C250.326 19.5447 250.238 19.178 250.077 18.87C249.915 18.5473 249.695 18.2833 249.417 18.078C249.153 17.8727 248.845 17.726 248.493 17.638C248.141 17.5353 247.767 17.484 247.371 17.484C247.063 17.484 246.747 17.5207 246.425 17.594C246.117 17.6527 245.831 17.7627 245.567 17.924C245.303 18.0707 245.09 18.2687 244.929 18.518C244.767 18.7673 244.687 19.0753 244.687 19.442C244.687 19.75 244.76 20.014 244.907 20.234C245.068 20.4393 245.266 20.6153 245.501 20.762C245.735 20.9087 245.992 21.0333 246.271 21.136C246.549 21.224 246.806 21.2973 247.041 21.356L248.889 21.774C249.285 21.8327 249.673 21.9427 250.055 22.104C250.451 22.2507 250.795 22.4487 251.089 22.698C251.397 22.9473 251.646 23.2553 251.837 23.622C252.027 23.9887 252.123 24.4213 252.123 24.92C252.123 25.536 251.983 26.064 251.705 26.504C251.426 26.9293 251.067 27.2813 250.627 27.56C250.201 27.824 249.717 28.0147 249.175 28.132C248.632 28.2493 248.097 28.308 247.569 28.308C246.234 28.308 245.149 27.9927 244.313 27.362C243.491 26.7313 243.022 25.7193 242.905 24.326H244.291C244.349 25.2647 244.687 25.976 245.303 26.46C245.933 26.9293 246.711 27.164 247.635 27.164C247.972 27.164 248.317 27.1273 248.669 27.054C249.035 26.9807 249.373 26.856 249.681 26.68C249.989 26.504 250.238 26.284 250.429 26.02C250.634 25.7413 250.737 25.404 250.737 25.008C250.737 24.6707 250.663 24.392 250.517 24.172C250.385 23.9373 250.201 23.7467 249.967 23.6C249.732 23.4387 249.461 23.3067 249.153 23.204C248.859 23.1013 248.559 23.0133 248.251 22.94L246.469 22.544C246.014 22.4267 245.596 22.2947 245.215 22.148C244.833 21.9867 244.496 21.796 244.203 21.576C243.924 21.3413 243.704 21.0627 243.543 20.74C243.381 20.4027 243.301 19.992 243.301 19.508C243.301 18.936 243.425 18.4447 243.675 18.034C243.939 17.6233 244.276 17.2933 244.687 17.044C245.097 16.7947 245.552 16.6113 246.051 16.494C246.564 16.3767 247.07 16.318 247.569 16.318C248.141 16.318 248.669 16.3913 249.153 16.538C249.651 16.6847 250.084 16.912 250.451 17.22C250.832 17.528 251.133 17.9093 251.353 18.364C251.573 18.8187 251.697 19.354 251.727 19.97H250.341ZM260.932 19.97C260.918 19.5447 260.83 19.178 260.668 18.87C260.507 18.5473 260.287 18.2833 260.008 18.078C259.744 17.8727 259.436 17.726 259.084 17.638C258.732 17.5353 258.358 17.484 257.962 17.484C257.654 17.484 257.339 17.5207 257.016 17.594C256.708 17.6527 256.422 17.7627 256.158 17.924C255.894 18.0707 255.682 18.2687 255.52 18.518C255.359 18.7673 255.278 19.0753 255.278 19.442C255.278 19.75 255.352 20.014 255.498 20.234C255.66 20.4393 255.858 20.6153 256.092 20.762C256.327 20.9087 256.584 21.0333 256.862 21.136C257.141 21.224 257.398 21.2973 257.632 21.356L259.48 21.774C259.876 21.8327 260.265 21.9427 260.646 22.104C261.042 22.2507 261.387 22.4487 261.68 22.698C261.988 22.9473 262.238 23.2553 262.428 23.622C262.619 23.9887 262.714 24.4213 262.714 24.92C262.714 25.536 262.575 26.064 262.296 26.504C262.018 26.9293 261.658 27.2813 261.218 27.56C260.793 27.824 260.309 28.0147 259.766 28.132C259.224 28.2493 258.688 28.308 258.16 28.308C256.826 28.308 255.74 27.9927 254.904 27.362C254.083 26.7313 253.614 25.7193 253.496 24.326H254.882C254.941 25.2647 255.278 25.976 255.894 26.46C256.525 26.9293 257.302 27.164 258.226 27.164C258.564 27.164 258.908 27.1273 259.26 27.054C259.627 26.9807 259.964 26.856 260.272 26.68C260.58 26.504 260.83 26.284 261.02 26.02C261.226 25.7413 261.328 25.404 261.328 25.008C261.328 24.6707 261.255 24.392 261.108 24.172C260.976 23.9373 260.793 23.7467 260.558 23.6C260.324 23.4387 260.052 23.3067 259.744 23.204C259.451 23.1013 259.15 23.0133 258.842 22.94L257.06 22.544C256.606 22.4267 256.188 22.2947 255.806 22.148C255.425 21.9867 255.088 21.796 254.794 21.576C254.516 21.3413 254.296 21.0627 254.134 20.74C253.973 20.4027 253.892 19.992 253.892 19.508C253.892 18.936 254.017 18.4447 254.266 18.034C254.53 17.6233 254.868 17.2933 255.278 17.044C255.689 16.7947 256.144 16.6113 256.642 16.494C257.156 16.3767 257.662 16.318 258.16 16.318C258.732 16.318 259.26 16.3913 259.744 16.538C260.243 16.6847 260.676 16.912 261.042 17.22C261.424 17.528 261.724 17.9093 261.944 18.364C262.164 18.8187 262.289 19.354 262.318 19.97H260.932Z" fill="black"/>
<path fill-rule="evenodd" clip-rule="evenodd" d="M28.2476 28.3237H25.3168L20 16.5872L14.6827 28.3237H11.7524V5.00261H15.0915V19.3303L18.4365 11.9461H21.5635L24.908 19.3303V5.00261H28.2476V28.3237ZM11.7524 34.9969H28.2471V31.6578H11.7524V34.9969ZM31.6165 0H8.3835C3.77275 0 0 3.77225 0 8.3835V31.616C0 36.2272 3.77275 40 8.3835 40H31.6165C36.2272 40 40 36.2272 40 31.616V8.3835C40 3.77225 36.2272 0 31.6165 0Z" fill="black"/>
</svg>
