<?xml version="1.0" encoding="UTF-8"?>
<svg width="158px" height="35px" viewBox="0 0 158 35" version="1.1" xmlns="http://www.w3.org/2000/svg" xmlns:xlink="http://www.w3.org/1999/xlink">
    <!-- Generator: Sketch 52.4 (67378) - http://www.bohemiancoding.com/sketch -->
    <title>logo</title>
    <desc>Created with Sketch.</desc>
    <g id="Symbols" stroke="none" stroke-width="1" fill="none" fill-rule="evenodd">
        <g id="Header" transform="translate(-20.000000, -20.000000)" fill="#FFFFFF">
            <g id="logo">
                <g transform="translate(20.000000, 20.000000)">
                    <path d="M49.8349609,9.16601562 L51.9296875,18.2324219 L52.3808594,20.7568359 L52.8427734,18.2861328 L54.6259766,9.16601562 L58.1171875,9.16601562 L59.9970703,18.2324219 L60.4804688,20.7568359 L60.9638672,18.3291016 L63.0800781,9.16601562 L66.4423828,9.16601562 L61.984375,25 L58.8261719,25 L56.9140625,15.7402344 L56.3554688,12.6787109 L55.796875,15.7402344 L53.8847656,25 L50.8125,25 L46.3222656,9.16601562 L49.8349609,9.16601562 Z M71.6109663,15.5039062 C70.9019784,15.5039062 70.352342,15.7259092 69.9620405,16.1699219 C69.5717391,16.6139345 69.3264616,17.215491 69.2262007,17.9746094 L73.9849898,17.9746094 C73.9348593,17.1653605 73.6895818,16.5512716 73.2491499,16.1323242 C72.808718,15.7133768 72.2626623,15.5039062 71.6109663,15.5039062 Z M71.6109663,12.9794922 C72.5849295,12.9794922 73.4621994,13.1621075 74.2428023,13.5273438 C75.0234051,13.89258 75.6679299,14.4690716 76.176396,15.2568359 C76.6347316,15.9515009 76.9319292,16.7571569 77.0679976,17.6738281 C77.146774,18.2109402 77.1790003,18.98437 77.1646773,19.9941406 L69.1510054,19.9941406 C69.1939744,21.1686257 69.5627858,21.9921851 70.2574507,22.4648438 C70.6799789,22.758465 71.1884373,22.9052734 71.7828413,22.9052734 C72.4130528,22.9052734 72.925092,22.7262388 73.3189741,22.3681641 C73.533819,22.1748037 73.7235957,21.9062517 73.8883101,21.5625 L77.0142866,21.5625 C76.9355102,22.2571649 76.5738602,22.9625615 75.9293257,23.6787109 C74.9267165,24.8173885 73.5230847,25.3867188 71.7183882,25.3867188 C70.2287974,25.3867188 68.914683,24.9069058 67.7760054,23.9472656 C66.6373278,22.9876254 66.0679976,21.4264431 66.0679976,19.2636719 C66.0679976,17.236969 66.5818271,15.6829481 67.6095015,14.6015625 C68.6371759,13.5201769 69.9709842,12.9794922 71.6109663,12.9794922 Z M84.868417,19.3066406 C84.6750567,19.428386 84.4799089,19.5268551 84.2829678,19.6020508 C84.0860267,19.6772465 83.8156844,19.74707 83.4719326,19.8115234 L82.7844326,19.9404297 C82.1398982,20.0550136 81.6779887,20.1946606 81.3986905,20.359375 C80.9260318,20.6386733 80.6897061,21.0719372 80.6897061,21.6591797 C80.6897061,22.1819688 80.8347242,22.5597319 81.1247647,22.7924805 C81.4148052,23.025229 81.7675035,23.1416016 82.1828701,23.1416016 C82.8417276,23.1416016 83.4486551,22.9482441 84.0036709,22.5615234 C84.5586867,22.1748028 84.8469325,21.4694062 84.868417,20.4453125 L84.868417,19.3066406 Z M83.0100186,17.8779297 C83.5757766,17.8063147 83.980395,17.7167974 84.2238858,17.609375 C84.6607369,17.4231762 84.8791592,17.13314 84.8791592,16.7392578 C84.8791592,16.2594377 84.712657,15.9282236 84.3796475,15.7456055 C84.046638,15.5629874 83.5578734,15.4716797 82.9133389,15.4716797 C82.190028,15.4716797 81.6779888,15.6507144 81.3772061,16.0087891 C81.1623613,16.2737643 81.0191335,16.6318337 80.9475186,17.0830078 L77.993417,17.0830078 C78.0578705,16.0589142 78.3443259,15.2174512 78.852792,14.5585938 C79.6620409,13.5273386 81.0513499,13.0117188 83.0207608,13.0117188 C84.3026682,13.0117188 85.4413287,13.265948 86.4367764,13.7744141 C87.4322241,14.2828801 87.9299405,15.242506 87.9299405,16.6533203 L87.9299405,22.0244141 C87.9299405,22.3968118 87.9371018,22.8479791 87.9514248,23.3779297 C87.9729093,23.7789734 88.0337811,24.0511061 88.134042,24.1943359 C88.2343029,24.3375658 88.3846921,24.4557287 88.5852139,24.5488281 L88.5852139,25 L85.2551358,25 C85.1620364,24.7636707 85.0975839,24.5416677 85.0617764,24.3339844 C85.0259689,24.126301 84.9973234,23.8899753 84.9758389,23.625 C84.5533107,24.0833356 84.0663364,24.4736312 83.5149014,24.7958984 C82.8560439,25.1754576 82.1112597,25.3652344 81.2805264,25.3652344 C80.2206253,25.3652344 79.3451457,25.0626658 78.6540616,24.4575195 C77.9629774,23.8523733 77.6174405,22.9947972 77.6174405,21.8847656 C77.6174405,20.4453053 78.1724479,19.4033235 79.2824795,18.7587891 C79.8912065,18.4078758 80.7863799,18.1572273 81.9680264,18.0068359 L83.0100186,17.8779297 Z M92.9588755,25 L89.8973521,25 L89.8973521,9.16601562 L92.9588755,9.16601562 L92.9588755,25 Z M93.9272637,15.5791016 L93.9272637,13.3984375 L95.5600762,13.3984375 L95.5600762,10.1328125 L98.5893731,10.1328125 L98.5893731,13.3984375 L100.49074,13.3984375 L100.49074,15.5791016 L98.5893731,15.5791016 L98.5893731,21.7666016 C98.5893731,22.2464217 98.6502449,22.5454096 98.7719903,22.6635742 C98.8937357,22.7817389 99.2661278,22.8408203 99.8891778,22.8408203 C99.9822772,22.8408203 100.080746,22.83903 100.184588,22.8354492 C100.28843,22.8318685 100.390479,22.8264974 100.49074,22.8193359 L100.49074,25.1074219 L99.040545,25.1611328 C97.5939232,25.2112633 96.6056518,24.9606147 96.0757012,24.4091797 C95.7319495,24.0582665 95.5600762,23.5175818 95.5600762,22.7871094 L95.5600762,15.5791016 L93.9272637,15.5791016 Z M108.0978,12.9902344 C108.821111,12.9902344 109.478169,13.1155586 110.068992,13.3662109 C110.659815,13.6168632 111.144999,13.9999974 111.524558,14.515625 C111.846825,14.9524761 112.043764,15.4018532 112.115378,15.8637695 C112.186993,16.3256859 112.2228,17.0794219 112.2228,18.125 L112.2228,25 L109.096824,25 L109.096824,17.8779297 C109.096824,17.2477182 108.989403,16.7392597 108.774558,16.3525391 C108.49526,15.8082655 107.965317,15.5361328 107.184714,15.5361328 C106.375466,15.5361328 105.761377,15.8064752 105.342429,16.347168 C104.923482,16.8878608 104.714011,17.6595002 104.714011,18.6621094 L104.714011,25 L101.66323,25 L101.66323,9.21972656 L104.714011,9.21972656 L104.714011,14.8164062 C105.158024,14.1360643 105.671853,13.6616224 106.255515,13.3930664 C106.839177,13.1245104 107.453266,12.9902344 108.0978,12.9902344 Z M123.428493,14.2041016 C123.428493,13.3805297 123.211861,12.793296 122.778591,12.4423828 C122.345321,12.0914696 121.738393,11.9160156 120.95779,11.9160156 L117.874782,11.9160156 L117.874782,16.578125 L120.95779,16.578125 C121.738393,16.578125 122.345321,16.3883483 122.778591,16.0087891 C123.211861,15.6292299 123.428493,15.0276734 123.428493,14.2041016 Z M126.70486,14.1826172 C126.70486,16.0517672 126.232209,17.373043 125.286892,18.1464844 C124.341574,18.9199257 122.991653,19.3066406 121.237087,19.3066406 L117.874782,19.3066406 L117.874782,25 L114.587673,25 L114.587673,9.16601562 L121.484157,9.16601562 C123.074009,9.16601562 124.341574,9.57421467 125.286892,10.390625 C126.232209,11.2070353 126.70486,12.4710201 126.70486,14.1826172 Z M134.580475,19.3066406 C134.387115,19.428386 134.191967,19.5268551 133.995026,19.6020508 C133.798085,19.6772465 133.527743,19.74707 133.183991,19.8115234 L132.496491,19.9404297 C131.851956,20.0550136 131.390047,20.1946606 131.110749,20.359375 C130.63809,20.6386733 130.401764,21.0719372 130.401764,21.6591797 C130.401764,22.1819688 130.546782,22.5597319 130.836823,22.7924805 C131.126863,23.025229 131.479562,23.1416016 131.894928,23.1416016 C132.553786,23.1416016 133.160713,22.9482441 133.715729,22.5615234 C134.270745,22.1748028 134.558991,21.4694062 134.580475,20.4453125 L134.580475,19.3066406 Z M132.722077,17.8779297 C133.287835,17.8063147 133.692453,17.7167974 133.935944,17.609375 C134.372795,17.4231762 134.591217,17.13314 134.591217,16.7392578 C134.591217,16.2594377 134.424715,15.9282236 134.091706,15.7456055 C133.758696,15.5629874 133.269932,15.4716797 132.625397,15.4716797 C131.902086,15.4716797 131.390047,15.6507144 131.089264,16.0087891 C130.874419,16.2737643 130.731192,16.6318337 130.659577,17.0830078 L127.705475,17.0830078 C127.769929,16.0589142 128.056384,15.2174512 128.56485,14.5585938 C129.374099,13.5273386 130.763408,13.0117188 132.732819,13.0117188 C134.014726,13.0117188 135.153387,13.265948 136.148835,13.7744141 C137.144282,14.2828801 137.641999,15.242506 137.641999,16.6533203 L137.641999,22.0244141 C137.641999,22.3968118 137.64916,22.8479791 137.663483,23.3779297 C137.684968,23.7789734 137.745839,24.0511061 137.8461,24.1943359 C137.946361,24.3375658 138.09675,24.4557287 138.297272,24.5488281 L138.297272,25 L134.967194,25 C134.874095,24.7636707 134.809642,24.5416677 134.773835,24.3339844 C134.738027,24.126301 134.709382,23.8899753 134.687897,23.625 C134.265369,24.0833356 133.778395,24.4736312 133.22696,24.7958984 C132.568102,25.1754576 131.823318,25.3652344 130.992585,25.3652344 C129.932683,25.3652344 129.057204,25.0626658 128.36612,24.4575195 C127.675036,23.8523733 127.329499,22.9947972 127.329499,21.8847656 C127.329499,20.4453053 127.884506,19.4033235 128.994538,18.7587891 C129.603265,18.4078758 130.498438,18.1572273 131.680085,18.0068359 L132.722077,17.8779297 Z M145.904332,13.0117188 C145.961624,13.0117188 146.009963,13.0135091 146.049352,13.0170898 C146.08874,13.0206706 146.176467,13.0260416 146.312535,13.0332031 L146.312535,16.1699219 C146.119175,16.1484374 145.947302,16.1341146 145.79691,16.1269531 C145.646519,16.1197916 145.524775,16.1162109 145.431676,16.1162109 C144.199899,16.1162109 143.372759,16.5172486 142.950231,17.3193359 C142.713901,17.7705101 142.595738,18.4651646 142.595738,19.4033203 L142.595738,25 L139.512731,25 L139.512731,13.2910156 L142.434606,13.2910156 L142.434606,15.3320312 C142.907264,14.5514284 143.319044,14.0179051 143.669957,13.7314453 C144.242877,13.2516252 144.987661,13.0117188 145.904332,13.0117188 Z M147.259439,9.21972656 L150.267252,9.21972656 L150.267252,17.7490234 L154.080728,13.3447266 L157.87272,13.3447266 L153.779947,17.8242188 L158.033853,25 L154.338541,25 L151.53483,19.9941406 L150.267252,21.3154297 L150.267252,25 L147.259439,25 L147.259439,9.21972656 Z" id="WealthPark"></path>
                    <path d="M24.7166206,24.7832798 L22.1522021,24.7832798 L17.5,14.5138422 L12.8473623,24.7832798 L10.2833794,24.7832798 L10.2833794,4.37728733 L13.2050564,4.37728733 L13.2050564,16.914009 L16.1319616,10.4528593 L18.8680384,10.4528593 L21.7945079,16.914009 L21.7945079,4.37728733 L24.7166206,4.37728733 L24.7166206,24.7832798 Z M10.2833794,30.622277 L24.7161849,30.622277 L24.7161849,27.7006 L10.2833794,27.7006 L10.2833794,30.622277 Z M27.6644385,0 L7.33556153,0 C3.30115518,0 0,3.3007195 0,7.33556153 L0,27.6640028 C0,31.6988448 3.30115518,35 7.33556153,35 L27.6644385,35 C31.6988448,35 35,31.6988448 35,27.6640028 L35,7.33556153 C35,3.3007195 31.6988448,0 27.6644385,0 Z" id="Fill-1"></path>
                </g>
            </g>
        </g>
    </g>
</svg>