<svg width="434" height="75" viewBox="0 0 434 75" fill="none" xmlns="http://www.w3.org/2000/svg">
<path d="M141.32 19.73L131.64 59H119.1L115.36 41.895C115.287 41.565 115.177 41.015 115.03 40.245C114.883 39.475 114.7 38.595 114.48 37.605C114.297 36.615 114.132 35.6433 113.985 34.69C113.838 33.7367 113.728 32.93 113.655 32.27C113.582 32.93 113.453 33.7367 113.27 34.69C113.123 35.6433 112.958 36.615 112.775 37.605C112.592 38.595 112.408 39.475 112.225 40.245C112.078 41.015 111.968 41.565 111.895 41.895L108.1 59H95.56L85.825 19.73H96.055L100.345 39.42C100.455 39.8967 100.602 40.5933 100.785 41.51C100.968 42.39 101.152 43.3433 101.335 44.37C101.555 45.3967 101.757 46.405 101.94 47.395C102.123 48.3483 102.252 49.155 102.325 49.815C102.472 48.715 102.655 47.45 102.875 46.02C103.132 44.59 103.407 43.16 103.7 41.73C103.993 40.2633 104.268 38.9067 104.525 37.66C104.818 36.4133 105.057 35.3867 105.24 34.58L108.705 19.73H118.55L121.905 34.58C122.088 35.35 122.308 36.3767 122.565 37.66C122.858 38.9067 123.152 40.2633 123.445 41.73C123.738 43.1967 124.013 44.645 124.27 46.075C124.527 47.505 124.71 48.7517 124.82 49.815C124.93 48.8983 125.113 47.7617 125.37 46.405C125.627 45.0483 125.883 43.7283 126.14 42.445C126.397 41.125 126.598 40.135 126.745 39.475L131.09 19.73H141.32ZM159.968 19.73C164.955 19.73 168.677 20.8117 171.133 22.975C173.627 25.1383 174.873 28.2183 174.873 32.215C174.873 34.0117 174.617 35.735 174.103 37.385C173.59 38.9983 172.747 40.465 171.573 41.785C170.437 43.0683 168.915 44.095 167.008 44.865C165.102 45.5983 162.755 45.965 159.968 45.965H156.998V59H146.383V19.73H159.968ZM159.748 28.31H156.998V37.33H159.088C160.005 37.33 160.848 37.1833 161.618 36.89C162.425 36.56 163.067 36.0467 163.543 35.35C164.02 34.6167 164.258 33.6633 164.258 32.49C164.258 31.2433 163.892 30.235 163.158 29.465C162.425 28.695 161.288 28.31 159.748 28.31ZM194.829 19.73C198.606 19.73 201.649 20.115 203.959 20.885C206.269 21.6183 207.956 22.7183 209.019 24.185C210.083 25.615 210.614 27.3933 210.614 29.52C210.614 31.2433 210.303 32.71 209.679 33.92C209.056 35.0933 208.268 36.0283 207.314 36.725C206.398 37.4217 205.444 37.8983 204.454 38.155V38.43C205.518 38.6867 206.581 39.1267 207.644 39.75C208.708 40.3733 209.588 41.3083 210.284 42.555C211.018 43.765 211.384 45.415 211.384 47.505C211.384 49.8883 210.779 51.9417 209.569 53.665C208.359 55.3883 206.636 56.7083 204.399 57.625C202.163 58.5417 199.504 59 196.424 59H181.134V19.73H194.829ZM194.939 34.8C196.699 34.8 197.928 34.4333 198.624 33.7C199.358 32.9667 199.724 32.0867 199.724 31.06C199.724 29.9967 199.321 29.19 198.514 28.64C197.708 28.0533 196.443 27.76 194.719 27.76H191.749V34.8H194.939ZM191.749 42.555V50.805H195.489C197.323 50.805 198.606 50.42 199.339 49.65C200.073 48.8433 200.439 47.835 200.439 46.625C200.439 45.9283 200.274 45.2683 199.944 44.645C199.651 44.0217 199.119 43.5267 198.349 43.16C197.616 42.7567 196.589 42.555 195.269 42.555H191.749ZM257.245 17.42C257.245 18.905 258.455 20.115 259.94 20.115C261.425 20.115 262.635 18.905 262.635 17.42C262.635 15.935 261.425 14.725 259.94 14.725C258.455 14.725 257.245 15.935 257.245 17.42ZM253.395 17.42C253.395 13.79 256.31 10.875 259.94 10.875C263.57 10.875 266.485 13.79 266.485 17.42C266.485 20.61 264.23 23.25 261.205 23.855C262.195 23.8 263.185 23.69 263.9 23.58V32.27C262.03 32.105 259.61 32.05 258.015 32.05H246.135V57.02C246.135 60.375 244.045 62.63 239.81 62.63C236.51 62.63 233.32 62.52 230.24 62.135L229.415 53.94C231.725 54.38 234.09 54.545 235.41 54.545C236.785 54.545 237.28 54.105 237.335 52.675C237.39 51.135 237.39 34.525 237.39 32.05H224.19C222.54 32.05 220.12 32.105 218.525 32.27V23.525C220.23 23.745 222.485 23.965 224.19 23.965H237.39V20.28C237.39 18.74 237.115 16.045 236.895 15H246.74C246.575 15.77 246.135 18.85 246.135 20.335V23.965H257.96C258.4 23.965 258.84 23.965 259.335 23.91C255.98 23.635 253.395 20.83 253.395 17.42ZM233.32 39.53C230.68 44.48 225.62 51.795 222.705 54.985L215.5 50.09C219.185 46.515 223.42 40.74 225.73 35.955L233.32 39.53ZM257.3 35.68C260.05 39.2 264.45 46.185 266.65 50.2L258.84 54.49C256.365 49.54 252.57 42.995 250.04 39.64L257.3 35.68ZM294.755 15.605C294.04 17.09 293.215 19.235 292.72 20.445C292.39 21.38 291.95 22.425 291.51 23.58H313.95C315.38 23.58 318.075 23.47 320 23.14V32.215C317.745 31.995 315.215 31.995 313.95 31.995H307.13C306.085 46.02 300.64 56.14 290.41 62.52L281.445 56.525C283.645 55.59 285.735 54.38 287.055 53.225C292.995 48.605 296.9 42.115 297.835 31.995H287.605C285.35 36.01 282.16 40.41 278.86 43.435L270.5 38.375C274.405 35.405 277.705 30.84 279.905 27.32C281.39 24.9 282.435 21.985 283.15 19.895C283.865 17.86 284.36 15.44 284.47 13.57L294.755 15.605ZM352.395 25.78C353.495 28.2 356.19 35.35 357.015 37.935L349.04 40.685C348.27 37.935 345.96 31.445 344.475 28.365L352.395 25.78ZM372.91 30.29C372.14 32.435 371.755 33.755 371.37 35.075C369.94 40.355 367.63 45.965 364 50.695C358.885 57.405 351.955 62.19 345.355 64.72L338.37 57.57C344.2 56.085 352.23 51.905 356.795 46.13C360.425 41.565 363.01 34.085 363.505 27.265L372.91 30.29ZM339.635 28.75C341.175 31.83 343.705 38.21 344.805 41.4L336.665 44.425C335.73 41.455 333.09 34.25 331.605 31.61L339.635 28.75ZM395.515 53.5V22.095C395.515 19.895 395.295 17.035 394.855 14.945H405.25C405.03 17.035 404.7 19.455 404.7 22.095V29.63C412.125 31.775 422.795 35.68 427.415 37.935L423.62 47.23C418.065 44.37 410.53 41.455 404.7 39.365V53.5C404.7 54.985 405.03 59.33 405.305 61.805H394.855C395.24 59.44 395.515 55.755 395.515 53.5Z" fill="white"/>
<path d="M0 9V41.0107C0 58.113 12.8827 72.0243 28.7148 72.0243H29.2852C45.1208 72.0243 58 58.113 58 41.0107V9H0Z" fill="white"/>
<path d="M41.8147 57.0488H16.1543V62.2446H41.8147V57.0488Z" fill="#0060FF"/>
<path d="M36.6224 37.8686L31.4197 26.3819H26.5563L21.3501 37.8686V15.5811H16.1543V51.8604H20.7168L28.988 33.6L37.2592 51.8604H41.8182V15.5811H36.6224V37.8686Z" fill="#0060FF"/>
</svg>
