<svg id="グループ_3" data-name="グループ 3" xmlns="http://www.w3.org/2000/svg" width="65" height="65" viewBox="0 0 65 65">
  <circle id="楕円形_3" data-name="楕円形 3" cx="32.5" cy="32.5" r="32.5" fill="#2b2b2b"/>
  <path id="パス_3" data-name="パス 3" d="M19.5,22.75H48.75V19.5H19.5a3.26,3.26,0,0,0-3.25,3.25V40.625H13V45.5H35.75V40.625H19.5ZM50.375,26h-9.75A1.63,1.63,0,0,0,39,27.625v16.25A1.63,1.63,0,0,0,40.625,45.5h9.75A1.63,1.63,0,0,0,52,43.875V27.625A1.63,1.63,0,0,0,50.375,26ZM42.25,40.625h6.5V29.25h-6.5Z" fill="#fff" fill-rule="evenodd"/>
</svg>
