<svg width="140" height="140" viewBox="0 0 140 140" fill="none" xmlns="http://www.w3.org/2000/svg">
<circle cx="70" cy="70" r="70" fill="#2E6CFF"/>
<path fill-rule="evenodd" clip-rule="evenodd" d="M70 40.8333C58.7417 40.8333 49.5834 49.9916 49.5834 61.25C49.5834 68.1916 53.0542 74.2875 58.3334 77.9916V84.5833C58.3334 86.1875 59.6459 87.5 61.25 87.5H78.75C80.3542 87.5 81.6667 86.1875 81.6667 84.5833V77.9916C86.9459 74.2875 90.4167 68.1916 90.4167 61.25C90.4167 49.9916 81.2584 40.8333 70 40.8333ZM61.25 96.25C61.25 97.8541 62.5625 99.1666 64.1667 99.1666H75.8334C77.4375 99.1666 78.75 97.8541 78.75 96.25V93.3333H61.25V96.25ZM75.8334 74.9583L78.3125 73.2083C82.25 70.4666 84.5834 66.0041 84.5834 61.25C84.5834 53.2 78.05 46.6666 70 46.6666C61.95 46.6666 55.4167 53.2 55.4167 61.25C55.4167 66.0041 57.75 70.4666 61.6875 73.2083L64.1667 74.9583V81.6666H75.8334V74.9583Z" fill="white"/>
</svg>
