<svg id="グループ_3" data-name="グループ 3" xmlns="http://www.w3.org/2000/svg" width="140" height="140" viewBox="0 0 140 140">
  <circle id="楕円形_3" data-name="楕円形 3" cx="70" cy="70" r="70" fill="#2E6CFF"/>
  <path id="パス_3" data-name="パス 3" d="M40.833,70A29.167,29.167,0,1,1,69.97,99.167,29.152,29.152,0,0,1,40.833,70ZM81.579,58.333h8.6A23.42,23.42,0,0,0,77.554,47.95,45.646,45.646,0,0,1,81.579,58.333ZM70,46.783a41.086,41.086,0,0,1,5.571,11.55H64.429A41.085,41.085,0,0,1,70,46.783ZM46.666,70a24.037,24.037,0,0,0,.758,5.833h9.858A48.176,48.176,0,0,1,56.875,70a48.177,48.177,0,0,1,.408-5.833H47.425A24.038,24.038,0,0,0,46.666,70Zm3.15,11.667h8.6A45.646,45.646,0,0,0,62.445,92.05,23.3,23.3,0,0,1,49.816,81.667Zm0-23.333h8.6A45.647,45.647,0,0,1,62.445,47.95,23.3,23.3,0,0,0,49.816,58.333ZM70,93.217a41.084,41.084,0,0,1-5.571-11.55H75.57A41.084,41.084,0,0,1,70,93.217ZM63.175,75.833h13.65A42.913,42.913,0,0,0,77.291,70a42.541,42.541,0,0,0-.467-5.833H63.175A42.54,42.54,0,0,0,62.708,70,42.912,42.912,0,0,0,63.175,75.833ZM77.554,92.05a45.645,45.645,0,0,0,4.025-10.383h8.6A23.42,23.42,0,0,1,77.554,92.05ZM83.125,70a48.176,48.176,0,0,1-.408,5.833h9.858a22.813,22.813,0,0,0,0-11.667H82.716A48.177,48.177,0,0,1,83.125,70Z" fill="#fff" fill-rule="evenodd"/>
</svg>
