<svg xmlns="http://www.w3.org/2000/svg" width="140" height="140" viewBox="0 0 140 140">
  <g id="グループ_1" data-name="グループ 1" transform="translate(-459 -584)">
    <circle id="楕円形_1" data-name="楕円形 1" cx="70" cy="70" r="70" transform="translate(459 584)" fill="#fff"/>
    <path id="パス_1" data-name="パス 1" d="M70,37.917,43.75,49.583v17.5c0,16.188,11.2,31.325,26.25,35,15.05-3.675,26.25-18.812,26.25-35v-17.5ZM90.417,67.083c0,13.183-8.692,25.346-20.417,28.963C58.275,92.429,49.583,80.267,49.583,67.083V53.375L70,44.3l20.417,9.071ZM52.5,72.917,56.612,68.8l7.554,7.525L83.387,57.108,87.5,61.25,64.167,84.583Z" transform="translate(459 584)" fill="#2E6CFF" fill-rule="evenodd"/>
  </g>
</svg>
