<svg id="グループ_10" data-name="グループ 10" xmlns="http://www.w3.org/2000/svg" width="140" height="140" viewBox="0 0 140 140">
  <circle id="楕円形_5" data-name="楕円形 5" cx="70" cy="70" r="70" fill="#fff"/>
  <path id="パス_5" data-name="パス 5" d="M91.438,64.283A21.853,21.853,0,0,0,50.6,58.45a17.493,17.493,0,0,0,1.9,34.883H90.417a14.542,14.542,0,0,0,1.021-29.05ZM90.417,87.5H52.5a11.658,11.658,0,0,1-1.283-23.246l3.121-.321L55.8,61.162a16,16,0,0,1,29.925,4.258L86.6,69.8l4.462.321A8.7,8.7,0,0,1,90.417,87.5ZM58.071,70.262l6.1,6.1L77.583,62.942,81.7,67.054,64.167,84.583,53.958,74.375Z" fill="#2E6CFF" fill-rule="evenodd"/>
</svg>
