<svg xmlns="http://www.w3.org/2000/svg" width="100" height="100" viewBox="0 0 100 100">
  <g id="グループ_15" data-name="グループ 15" transform="translate(-590 -472)">
    <g id="グループ_7" data-name="グループ 7" transform="translate(590 472)">
      <circle id="楕円形_7" data-name="楕円形 7" cx="50" cy="50" r="50" fill="#ddedff"/>
      <path id="パス_7" data-name="パス 7" d="M68.756,50a19.483,19.483,0,0,1-.175,2.45l5.275,4.125a1.261,1.261,0,0,1,.3,1.6l-5,8.65a1.238,1.238,0,0,1-1.075.625,1.416,1.416,0,0,1-.45-.075l-6.225-2.5a19.207,19.207,0,0,1-4.225,2.45l-.95,6.625A1.219,1.219,0,0,1,55.006,75h-10a1.219,1.219,0,0,1-1.225-1.05l-.95-6.625a18.265,18.265,0,0,1-4.225-2.45l-6.225,2.5a1.168,1.168,0,0,1-.425.075,1.249,1.249,0,0,1-1.1-.625l-5-8.65a1.261,1.261,0,0,1,.3-1.6l5.275-4.125a17.238,17.238,0,0,1,0-4.9l-5.275-4.125a1.233,1.233,0,0,1-.3-1.6l5-8.65a1.238,1.238,0,0,1,1.075-.625,1.416,1.416,0,0,1,.45.075l6.225,2.5a19.207,19.207,0,0,1,4.225-2.45l.95-6.625A1.219,1.219,0,0,1,45.006,25h10a1.219,1.219,0,0,1,1.225,1.05l.95,6.625a18.265,18.265,0,0,1,4.225,2.45l6.225-2.5a1.168,1.168,0,0,1,.425-.075,1.249,1.249,0,0,1,1.1.625l5,8.65a1.261,1.261,0,0,1-.3,1.6L68.58,47.55A19.483,19.483,0,0,1,68.756,50Zm-5,0a13.357,13.357,0,0,0-.125-1.825l-.35-2.825,2.225-1.75,2.675-2.125L66.43,38.45l-3.175,1.275L60.605,40.8l-2.275-1.75a14.185,14.185,0,0,0-3.075-1.775L52.605,36.2l-.4-2.825L51.73,30H48.256l-.5,3.375-.4,2.825-2.65,1.075A14.641,14.641,0,0,0,41.581,39.1l-2.25,1.7-2.6-1.05-3.175-1.275L31.806,41.5l2.7,2.1,2.225,1.75-.35,2.825c-.075.75-.125,1.325-.125,1.825s.05,1.075.125,1.85l.35,2.825-2.225,1.75-2.7,2.1,1.75,3.025,3.175-1.275,2.65-1.075,2.275,1.75a14.185,14.185,0,0,0,3.075,1.775l2.65,1.075.4,2.825L48.256,70h3.5l.5-3.375.4-2.825,2.65-1.075A14.642,14.642,0,0,0,58.431,60.9l2.25-1.7,2.6,1.05,3.175,1.275,1.75-3.025-2.7-2.1L63.28,54.65l.35-2.825C63.706,51.075,63.756,50.525,63.756,50ZM50.006,40a10,10,0,1,0,10,10A10,10,0,0,0,50.006,40Zm-5,10a5,5,0,1,0,5-5A5.015,5.015,0,0,0,45.006,50Z" fill="#2E6CFF" fill-rule="evenodd"/>
    </g>
  </g>
</svg>
