<svg id="グループ_9" data-name="グループ 9" xmlns="http://www.w3.org/2000/svg" width="140" height="140" viewBox="0 0 140 140">
  <circle id="楕円形_2" data-name="楕円形 2" cx="70" cy="70" r="70" fill="#fff"/>
  <path id="パス_2" data-name="パス 2" d="M46.667,52.5h52.5V46.667h-52.5A5.85,5.85,0,0,0,40.833,52.5V84.583H35v8.75H75.833v-8.75H46.667Zm55.416,5.833h-17.5a2.925,2.925,0,0,0-2.917,2.917V90.417a2.925,2.925,0,0,0,2.917,2.917h17.5A2.925,2.925,0,0,0,105,90.417V61.25A2.925,2.925,0,0,0,102.083,58.333ZM87.5,84.583H99.167V64.167H87.5Z" fill="#2E6CFF" fill-rule="evenodd"/>
</svg>
