<svg xmlns="http://www.w3.org/2000/svg" width="100" height="100" viewBox="0 0 100 100">
  <g id="グループ_16" data-name="グループ 16" transform="translate(-822 -472)">
    <g id="グループ_8" data-name="グループ 8" transform="translate(822 472)">
      <circle id="楕円形_8" data-name="楕円形 8" cx="50" cy="50" r="50" fill="#ddedff"/>
      <path id="パス_8" data-name="パス 8" d="M70.25,27.5H29.75a2.241,2.241,0,0,0-2.25,2.25v40.5a2.417,2.417,0,0,0,2.25,2.25h40.5a2.652,2.652,0,0,0,2.25-2.25V29.75A2.417,2.417,0,0,0,70.25,27.5ZM42.5,37.5h-5v5h5Zm20,0h-15v5h15Zm0,10h-15v5h15Zm-15,10h15v5h-15Zm-10-10h5v5h-5Zm5,10h-5v5h5Zm-10,10h35v-35h-35Z" fill="#2E6CFF" fill-rule="evenodd"/>
    </g>
  </g>
</svg>
