<svg xmlns="http://www.w3.org/2000/svg" width="68.75" height="37.5" viewBox="0 0 68.75 37.5">
  <path id="パス_6" data-name="パス 6" d="M68.875,7a6.268,6.268,0,0,1-6.25,6.25,5.313,5.313,0,0,1-1.594-.219L49.906,24.125a5.522,5.522,0,0,1,.219,1.625,6.25,6.25,0,0,1-12.5,0,5.522,5.522,0,0,1,.219-1.625l-7.969-7.969a6.144,6.144,0,0,1-3.25,0L12.406,30.406A5.313,5.313,0,0,1,12.625,32a6.25,6.25,0,1,1-6.25-6.25,5.313,5.313,0,0,1,1.594.219L22.219,11.75A5.518,5.518,0,0,1,22,10.125a6.25,6.25,0,0,1,12.5,0,5.522,5.522,0,0,1-.219,1.625l7.969,7.969a6.144,6.144,0,0,1,3.25,0L56.594,8.594A5.313,5.313,0,0,1,56.375,7a6.25,6.25,0,0,1,12.5,0Z" transform="translate(-0.125 -0.75)" fill="#2E6CFF"/>
</svg>
