<svg xmlns="http://www.w3.org/2000/svg" width="75" height="50" viewBox="0 0 75 50">
  <path id="パス_4" data-name="パス 4" d="M60.469,19.375a23.414,23.414,0,0,0-43.75-6.25A18.742,18.742,0,0,0,18.75,50.5H59.375a15.58,15.58,0,0,0,1.094-31.125ZM59.375,44.25H18.75a12.491,12.491,0,0,1-1.375-24.906L20.719,19l1.562-2.969a17.147,17.147,0,0,1,32.063,4.563l.937,4.687,4.781.344a9.323,9.323,0,0,1-.687,18.625ZM24.719,25.781l6.531,6.531L45.625,17.938l4.406,4.406L31.25,41.125,20.313,30.188Z" transform="translate(0 -0.5)" fill="#2E6CFF" fill-rule="evenodd"/>
</svg>
