<svg xmlns="http://www.w3.org/2000/svg" width="60.794" height="62.5" viewBox="0 0 60.794 62.5">
  <path id="パス_7" data-name="パス 7" d="M53.944,31.5a24.353,24.353,0,0,1-.219,3.063l6.594,5.156a1.577,1.577,0,0,1,.375,2l-6.25,10.812a1.548,1.548,0,0,1-1.344.781,1.769,1.769,0,0,1-.562-.094l-7.781-3.125a24.009,24.009,0,0,1-5.281,3.062l-1.187,8.281a1.524,1.524,0,0,1-1.531,1.313h-12.5a1.524,1.524,0,0,1-1.531-1.312l-1.187-8.281a22.829,22.829,0,0,1-5.281-3.062L8.475,53.219a1.46,1.46,0,0,1-.531.094,1.561,1.561,0,0,1-1.375-.781L.319,41.719a1.577,1.577,0,0,1,.375-2l6.594-5.156A24.784,24.784,0,0,1,7.069,31.5a24.784,24.784,0,0,1,.219-3.062L.694,23.281a1.541,1.541,0,0,1-.375-2l6.25-10.812a1.548,1.548,0,0,1,1.344-.781,1.77,1.77,0,0,1,.562.094l7.781,3.125a24.006,24.006,0,0,1,5.281-3.063l1.188-8.281A1.524,1.524,0,0,1,24.257.25h12.5a1.524,1.524,0,0,1,1.531,1.313l1.188,8.281a22.832,22.832,0,0,1,5.281,3.063l7.781-3.125a1.46,1.46,0,0,1,.531-.094,1.561,1.561,0,0,1,1.375.781l6.25,10.812a1.577,1.577,0,0,1-.375,2l-6.594,5.156A24.353,24.353,0,0,1,53.944,31.5Zm-6.25,0a16.7,16.7,0,0,0-.156-2.281L47.1,25.688,49.882,23.5l3.344-2.656-2.187-3.781-3.969,1.594L43.757,20l-2.844-2.187a17.726,17.726,0,0,0-3.844-2.219L33.757,14.25l-.5-3.531L32.663,6.5H28.319l-.625,4.219-.5,3.531-3.312,1.344a18.3,18.3,0,0,0-3.906,2.281L17.163,20l-3.25-1.312L9.944,17.094,7.757,20.875,11.132,23.5l2.781,2.188-.437,3.531c-.094.937-.156,1.656-.156,2.281s.063,1.344.156,2.313l.438,3.531-2.781,2.187L7.757,42.156l2.187,3.781,3.969-1.594L17.226,43l2.844,2.188a17.726,17.726,0,0,0,3.844,2.219l3.313,1.344.5,3.531.594,4.219h4.375l.625-4.219.5-3.531,3.313-1.344a18.3,18.3,0,0,0,3.906-2.281L43.85,43l3.25,1.313,3.969,1.594,2.188-3.781L49.882,39.5,47.1,37.313l.438-3.531C47.632,32.844,47.694,32.156,47.694,31.5ZM30.507,19a12.5,12.5,0,1,0,12.5,12.5A12.5,12.5,0,0,0,30.507,19Zm-6.25,12.5a6.25,6.25,0,1,0,6.25-6.25A6.268,6.268,0,0,0,24.257,31.5Z" transform="translate(-0.103 -0.25)" fill="#2E6CFF" fill-rule="evenodd"/>
</svg>
