<svg xmlns="http://www.w3.org/2000/svg" width="56.25" height="56.25" viewBox="0 0 56.25 56.25">
  <path id="パス_8" data-name="パス 8" d="M53.813.375H3.188A2.8,2.8,0,0,0,.375,3.188V53.813a3.021,3.021,0,0,0,2.813,2.813H53.813a3.315,3.315,0,0,0,2.813-2.812V3.188A3.021,3.021,0,0,0,53.813.375Zm-34.687,12.5h-6.25v6.25h6.25Zm25,0H25.375v6.25h18.75Zm0,12.5H25.375v6.25h18.75Zm-18.75,12.5h18.75v6.25H25.375Zm-12.5-12.5h6.25v6.25h-6.25Zm6.25,12.5h-6.25v6.25h6.25Zm-12.5,12.5h43.75V6.625H6.625Z" transform="translate(-0.375 -0.375)" fill="#2E6CFF" fill-rule="evenodd"/>
</svg>
