<svg xmlns="http://www.w3.org/2000/svg" width="62.5" height="62.5" viewBox="0 0 62.5 62.5">
  <path id="パス_5" data-name="パス 5" d="M.25,31.5A31.25,31.25,0,1,1,31.469,62.75,31.235,31.235,0,0,1,.25,31.5ZM43.906,19h9.219A25.093,25.093,0,0,0,39.594,7.875,48.9,48.9,0,0,1,43.906,19ZM31.5,6.625A44.022,44.022,0,0,1,37.469,19H25.531A44.022,44.022,0,0,1,31.5,6.625ZM6.5,31.5a25.756,25.756,0,0,0,.813,6.25H17.875a51.61,51.61,0,0,1-.437-6.25,51.61,51.61,0,0,1,.438-6.25H7.313A25.756,25.756,0,0,0,6.5,31.5ZM9.875,44h9.219a48.905,48.905,0,0,0,4.313,11.125A24.959,24.959,0,0,1,9.875,44Zm0-25h9.219A48.9,48.9,0,0,1,23.406,7.875,24.959,24.959,0,0,0,9.875,19ZM31.5,56.375A44.02,44.02,0,0,1,25.531,44H37.469A44.021,44.021,0,0,1,31.5,56.375ZM24.188,37.75H38.813a45.97,45.97,0,0,0,.5-6.25,45.57,45.57,0,0,0-.5-6.25H24.188a45.57,45.57,0,0,0-.5,6.25A45.97,45.97,0,0,0,24.188,37.75ZM39.594,55.125A48.905,48.905,0,0,0,43.906,44h9.219A25.093,25.093,0,0,1,39.594,55.125ZM45.563,31.5a51.61,51.61,0,0,1-.437,6.25H55.688A25.756,25.756,0,0,0,56.5,31.5a25.756,25.756,0,0,0-.812-6.25H45.125A51.61,51.61,0,0,1,45.563,31.5Z" transform="translate(-0.25 -0.25)" fill="#2E6CFF" fill-rule="evenodd"/>
</svg>
