<svg width="272" height="40" viewBox="0 0 272 40" fill="none" xmlns="http://www.w3.org/2000/svg">
<path d="M68.478 28L72.702 12.292H69.314L66.74 23.116H66.696L64.012 12.292H60.778L58.05 22.984H58.006L55.52 12.292H52.066L56.224 28H59.722L62.34 17.308H62.384L65.046 28H68.478ZM80.3733 21.092H75.2913C75.306 20.872 75.35 20.6227 75.4233 20.344C75.5113 20.0653 75.6506 19.8013 75.8413 19.552C76.0466 19.3027 76.3106 19.0973 76.6333 18.936C76.9706 18.76 77.3886 18.672 77.8873 18.672C78.65 18.672 79.2146 18.8773 79.5813 19.288C79.9626 19.6987 80.2266 20.3 80.3733 21.092ZM75.2913 23.072H83.4973C83.556 22.192 83.4826 21.3487 83.2773 20.542C83.072 19.7353 82.7346 19.0167 82.2653 18.386C81.8106 17.7553 81.224 17.2567 80.5053 16.89C79.7866 16.5087 78.9433 16.318 77.9753 16.318C77.11 16.318 76.318 16.472 75.5993 16.78C74.8953 17.088 74.2866 17.5133 73.7733 18.056C73.26 18.584 72.864 19.2147 72.5853 19.948C72.3066 20.6813 72.1673 21.4733 72.1673 22.324C72.1673 23.204 72.2993 24.0107 72.5633 24.744C72.842 25.4773 73.2306 26.108 73.7293 26.636C74.228 27.164 74.8366 27.5747 75.5553 27.868C76.274 28.1467 77.0806 28.286 77.9753 28.286C79.266 28.286 80.366 27.9927 81.2753 27.406C82.1846 26.8193 82.8593 25.844 83.2993 24.48H80.5493C80.4466 24.832 80.168 25.1693 79.7133 25.492C79.2586 25.8 78.716 25.954 78.0853 25.954C77.2053 25.954 76.5306 25.7267 76.0613 25.272C75.592 24.8173 75.3353 24.084 75.2913 23.072ZM85.2181 20.124C85.2621 19.3907 85.4454 18.782 85.7681 18.298C86.0908 17.814 86.5014 17.4253 87.0001 17.132C87.4988 16.8387 88.0561 16.6333 88.6721 16.516C89.3028 16.384 89.9334 16.318 90.5641 16.318C91.1361 16.318 91.7154 16.362 92.3021 16.45C92.8888 16.5233 93.4241 16.6773 93.9081 16.912C94.3921 17.1467 94.7881 17.4767 95.0961 17.902C95.4041 18.3127 95.5581 18.8627 95.5581 19.552V25.47C95.5581 25.9833 95.5874 26.4747 95.6461 26.944C95.7048 27.4133 95.8074 27.7653 95.9541 28H92.7861C92.7274 27.824 92.6761 27.648 92.6321 27.472C92.6028 27.2813 92.5808 27.0907 92.5661 26.9C92.0674 27.4133 91.4808 27.7727 90.8061 27.978C90.1314 28.1833 89.4421 28.286 88.7381 28.286C88.1954 28.286 87.6894 28.22 87.2201 28.088C86.7508 27.956 86.3401 27.7507 85.9881 27.472C85.6361 27.1933 85.3574 26.8413 85.1521 26.416C84.9614 25.9907 84.8661 25.4847 84.8661 24.898C84.8661 24.2527 84.9761 23.7247 85.1961 23.314C85.4308 22.8887 85.7241 22.5513 86.0761 22.302C86.4428 22.0527 86.8534 21.8693 87.3081 21.752C87.7774 21.62 88.2468 21.5173 88.7161 21.444C89.1854 21.3707 89.6474 21.312 90.1021 21.268C90.5568 21.224 90.9601 21.158 91.3121 21.07C91.6641 20.982 91.9428 20.8573 92.1481 20.696C92.3534 20.52 92.4488 20.2707 92.4341 19.948C92.4341 19.6107 92.3754 19.3467 92.2581 19.156C92.1554 18.9507 92.0088 18.7967 91.8181 18.694C91.6421 18.5767 91.4294 18.5033 91.1801 18.474C90.9454 18.43 90.6888 18.408 90.4101 18.408C89.7941 18.408 89.3101 18.54 88.9581 18.804C88.6061 19.068 88.4008 19.508 88.3421 20.124H85.2181ZM92.4341 22.434C92.3021 22.5513 92.1334 22.6467 91.9281 22.72C91.7374 22.7787 91.5248 22.83 91.2901 22.874C91.0701 22.918 90.8354 22.9547 90.5861 22.984C90.3368 23.0133 90.0874 23.05 89.8381 23.094C89.6034 23.138 89.3688 23.1967 89.1341 23.27C88.9141 23.3433 88.7161 23.446 88.5401 23.578C88.3788 23.6953 88.2468 23.8493 88.1441 24.04C88.0414 24.2307 87.9901 24.4727 87.9901 24.766C87.9901 25.0447 88.0414 25.2793 88.1441 25.47C88.2468 25.6607 88.3861 25.8147 88.5621 25.932C88.7381 26.0347 88.9434 26.108 89.1781 26.152C89.4128 26.196 89.6548 26.218 89.9041 26.218C90.5201 26.218 90.9968 26.1153 91.3341 25.91C91.6714 25.7047 91.9208 25.4627 92.0821 25.184C92.2434 24.8907 92.3388 24.5973 92.3681 24.304C92.4121 24.0107 92.4341 23.776 92.4341 23.6V22.434ZM98.0709 12.292V28H101.195V12.292H98.0709ZM107.615 16.626V13.216H104.491V16.626H102.599V18.716H104.491V25.426C104.491 25.998 104.586 26.46 104.777 26.812C104.967 27.164 105.224 27.4353 105.547 27.626C105.884 27.8167 106.265 27.9413 106.691 28C107.131 28.0733 107.593 28.11 108.077 28.11C108.385 28.11 108.7 28.1027 109.023 28.088C109.345 28.0733 109.639 28.044 109.903 28V25.58C109.756 25.6093 109.602 25.6313 109.441 25.646C109.279 25.6607 109.111 25.668 108.935 25.668C108.407 25.668 108.055 25.58 107.879 25.404C107.703 25.228 107.615 24.876 107.615 24.348V18.716H109.903V16.626H107.615ZM111.389 12.292V28H114.513V22.038C114.513 20.8793 114.704 20.0507 115.085 19.552C115.467 19.0387 116.083 18.782 116.933 18.782C117.681 18.782 118.202 19.0167 118.495 19.486C118.789 19.9407 118.935 20.6373 118.935 21.576V28H122.059V21.004C122.059 20.3 121.993 19.662 121.861 19.09C121.744 18.5033 121.531 18.012 121.223 17.616C120.915 17.2053 120.49 16.89 119.947 16.67C119.419 16.4353 118.737 16.318 117.901 16.318C117.315 16.318 116.713 16.472 116.097 16.78C115.481 17.0733 114.975 17.55 114.579 18.21H114.513V12.292H111.389ZM128.214 19.684V14.976H130.898C131.294 14.976 131.676 15.0053 132.042 15.064C132.409 15.1227 132.732 15.24 133.01 15.416C133.289 15.5773 133.509 15.812 133.67 16.12C133.846 16.428 133.934 16.8313 133.934 17.33C133.934 17.8287 133.846 18.232 133.67 18.54C133.509 18.848 133.289 19.09 133.01 19.266C132.732 19.4273 132.409 19.5373 132.042 19.596C131.676 19.6547 131.294 19.684 130.898 19.684H128.214ZM124.76 12.292V28H128.214V22.368H131.844C132.827 22.368 133.663 22.2287 134.352 21.95C135.042 21.6567 135.599 21.2753 136.024 20.806C136.464 20.3367 136.78 19.8013 136.97 19.2C137.176 18.584 137.278 17.9607 137.278 17.33C137.278 16.6847 137.176 16.0613 136.97 15.46C136.78 14.8587 136.464 14.3233 136.024 13.854C135.599 13.3847 135.042 13.0107 134.352 12.732C133.663 12.4387 132.827 12.292 131.844 12.292H124.76ZM138.972 20.124C139.016 19.3907 139.199 18.782 139.522 18.298C139.845 17.814 140.255 17.4253 140.754 17.132C141.253 16.8387 141.81 16.6333 142.426 16.516C143.057 16.384 143.687 16.318 144.318 16.318C144.89 16.318 145.469 16.362 146.056 16.45C146.643 16.5233 147.178 16.6773 147.662 16.912C148.146 17.1467 148.542 17.4767 148.85 17.902C149.158 18.3127 149.312 18.8627 149.312 19.552V25.47C149.312 25.9833 149.341 26.4747 149.4 26.944C149.459 27.4133 149.561 27.7653 149.708 28H146.54C146.481 27.824 146.43 27.648 146.386 27.472C146.357 27.2813 146.335 27.0907 146.32 26.9C145.821 27.4133 145.235 27.7727 144.56 27.978C143.885 28.1833 143.196 28.286 142.492 28.286C141.949 28.286 141.443 28.22 140.974 28.088C140.505 27.956 140.094 27.7507 139.742 27.472C139.39 27.1933 139.111 26.8413 138.906 26.416C138.715 25.9907 138.62 25.4847 138.62 24.898C138.62 24.2527 138.73 23.7247 138.95 23.314C139.185 22.8887 139.478 22.5513 139.83 22.302C140.197 22.0527 140.607 21.8693 141.062 21.752C141.531 21.62 142.001 21.5173 142.47 21.444C142.939 21.3707 143.401 21.312 143.856 21.268C144.311 21.224 144.714 21.158 145.066 21.07C145.418 20.982 145.697 20.8573 145.902 20.696C146.107 20.52 146.203 20.2707 146.188 19.948C146.188 19.6107 146.129 19.3467 146.012 19.156C145.909 18.9507 145.763 18.7967 145.572 18.694C145.396 18.5767 145.183 18.5033 144.934 18.474C144.699 18.43 144.443 18.408 144.164 18.408C143.548 18.408 143.064 18.54 142.712 18.804C142.36 19.068 142.155 19.508 142.096 20.124H138.972ZM146.188 22.434C146.056 22.5513 145.887 22.6467 145.682 22.72C145.491 22.7787 145.279 22.83 145.044 22.874C144.824 22.918 144.589 22.9547 144.34 22.984C144.091 23.0133 143.841 23.05 143.592 23.094C143.357 23.138 143.123 23.1967 142.888 23.27C142.668 23.3433 142.47 23.446 142.294 23.578C142.133 23.6953 142.001 23.8493 141.898 24.04C141.795 24.2307 141.744 24.4727 141.744 24.766C141.744 25.0447 141.795 25.2793 141.898 25.47C142.001 25.6607 142.14 25.8147 142.316 25.932C142.492 26.0347 142.697 26.108 142.932 26.152C143.167 26.196 143.409 26.218 143.658 26.218C144.274 26.218 144.751 26.1153 145.088 25.91C145.425 25.7047 145.675 25.4627 145.836 25.184C145.997 24.8907 146.093 24.5973 146.122 24.304C146.166 24.0107 146.188 23.776 146.188 23.6V22.434ZM151.737 16.626V28H154.861V22.874C154.861 22.3607 154.912 21.884 155.015 21.444C155.117 21.004 155.286 20.6227 155.521 20.3C155.77 19.9627 156.093 19.6987 156.489 19.508C156.885 19.3173 157.369 19.222 157.941 19.222C158.131 19.222 158.329 19.2367 158.535 19.266C158.74 19.2807 158.916 19.3027 159.063 19.332V16.428C158.813 16.3547 158.586 16.318 158.381 16.318C157.985 16.318 157.603 16.3767 157.237 16.494C156.87 16.6113 156.525 16.78 156.203 17C155.88 17.2053 155.594 17.462 155.345 17.77C155.095 18.0633 154.897 18.386 154.751 18.738H154.707V16.626H151.737ZM160.574 12.292V28H163.698V24.084L164.908 22.918L168.032 28H171.816L167.042 20.806L171.332 16.626H167.636L163.698 20.718V12.292H160.574ZM180.935 19.178V13.568H186.083C188.445 13.568 189.625 14.5507 189.625 16.516C189.625 16.8827 189.552 17.2273 189.405 17.55C189.259 17.8727 189.039 18.1587 188.745 18.408C188.452 18.6427 188.085 18.8333 187.645 18.98C187.205 19.112 186.685 19.178 186.083 19.178H180.935ZM179.439 12.292V28H186.083C186.934 28 187.66 27.9267 188.261 27.78C188.877 27.6187 189.391 27.4207 189.801 27.186C190.227 26.9367 190.564 26.6507 190.813 26.328C191.063 26.0053 191.253 25.6827 191.385 25.36C191.517 25.0227 191.605 24.7 191.649 24.392C191.693 24.0693 191.715 23.7833 191.715 23.534C191.715 22.5073 191.415 21.6493 190.813 20.96C190.212 20.256 189.405 19.838 188.393 19.706V19.662C188.804 19.574 189.171 19.42 189.493 19.2C189.831 18.98 190.117 18.716 190.351 18.408C190.601 18.0853 190.791 17.7333 190.923 17.352C191.055 16.956 191.121 16.5527 191.121 16.142C191.121 15.4087 190.982 14.8 190.703 14.316C190.425 13.8173 190.051 13.4213 189.581 13.128C189.127 12.82 188.591 12.6073 187.975 12.49C187.374 12.358 186.743 12.292 186.083 12.292H179.439ZM180.935 26.724V20.454H186.083C187.418 20.454 188.437 20.7107 189.141 21.224C189.86 21.7227 190.219 22.478 190.219 23.49C190.219 24.1207 190.109 24.6487 189.889 25.074C189.669 25.4847 189.369 25.8147 188.987 26.064C188.606 26.3133 188.166 26.4893 187.667 26.592C187.169 26.68 186.641 26.724 186.083 26.724H180.935ZM203.045 28V16.648H201.659V22.61C201.659 23.182 201.593 23.7467 201.461 24.304C201.329 24.8467 201.124 25.3307 200.845 25.756C200.567 26.1813 200.215 26.526 199.789 26.79C199.364 27.0393 198.851 27.164 198.249 27.164C197.149 27.164 196.372 26.9 195.917 26.372C195.477 25.844 195.243 25.0667 195.213 24.04V16.648H193.827V24.018C193.827 24.6927 193.901 25.294 194.047 25.822C194.194 26.35 194.421 26.7973 194.729 27.164C195.052 27.5307 195.463 27.8093 195.961 28C196.475 28.2053 197.091 28.308 197.809 28.308C198.66 28.308 199.43 28.11 200.119 27.714C200.823 27.3033 201.359 26.7167 201.725 25.954H201.769V28H203.045ZM212.464 19.97H213.85C213.82 19.354 213.696 18.8187 213.476 18.364C213.256 17.9093 212.955 17.528 212.574 17.22C212.207 16.912 211.774 16.6847 211.276 16.538C210.792 16.3913 210.264 16.318 209.692 16.318C209.193 16.318 208.687 16.3767 208.174 16.494C207.675 16.6113 207.22 16.7947 206.81 17.044C206.399 17.2933 206.062 17.6233 205.798 18.034C205.548 18.4447 205.424 18.936 205.424 19.508C205.424 19.992 205.504 20.4027 205.666 20.74C205.827 21.0627 206.047 21.3413 206.326 21.576C206.619 21.796 206.956 21.9867 207.338 22.148C207.719 22.2947 208.137 22.4267 208.592 22.544L210.374 22.94C210.682 23.0133 210.982 23.1013 211.276 23.204C211.584 23.3067 211.855 23.4387 212.09 23.6C212.324 23.7467 212.508 23.9373 212.64 24.172C212.786 24.392 212.86 24.6707 212.86 25.008C212.86 25.404 212.757 25.7413 212.552 26.02C212.361 26.284 212.112 26.504 211.804 26.68C211.496 26.856 211.158 26.9807 210.792 27.054C210.44 27.1273 210.095 27.164 209.758 27.164C208.834 27.164 208.056 26.9293 207.426 26.46C206.81 25.976 206.472 25.2647 206.414 24.326H205.028C205.145 25.7193 205.614 26.7313 206.436 27.362C207.272 27.9927 208.357 28.308 209.692 28.308C210.22 28.308 210.755 28.2493 211.298 28.132C211.84 28.0147 212.324 27.824 212.75 27.56C213.19 27.2813 213.549 26.9293 213.828 26.504C214.106 26.064 214.246 25.536 214.246 24.92C214.246 24.4213 214.15 23.9887 213.96 23.622C213.769 23.2553 213.52 22.9473 213.212 22.698C212.918 22.4487 212.574 22.2507 212.178 22.104C211.796 21.9427 211.408 21.8327 211.012 21.774L209.164 21.356C208.929 21.2973 208.672 21.224 208.394 21.136C208.115 21.0333 207.858 20.9087 207.624 20.762C207.389 20.6153 207.191 20.4393 207.03 20.234C206.883 20.014 206.81 19.75 206.81 19.442C206.81 19.0753 206.89 18.7673 207.052 18.518C207.213 18.2687 207.426 18.0707 207.69 17.924C207.954 17.7627 208.24 17.6527 208.548 17.594C208.87 17.5207 209.186 17.484 209.494 17.484C209.89 17.484 210.264 17.5353 210.616 17.638C210.968 17.726 211.276 17.8727 211.54 18.078C211.818 18.2833 212.038 18.5473 212.2 18.87C212.361 19.178 212.449 19.5447 212.464 19.97ZM216.28 12.292V14.514H217.666V12.292H216.28ZM216.28 16.648V28H217.666V16.648H216.28ZM220.296 16.648V28H221.682V21.378C221.697 20.8207 221.785 20.3073 221.946 19.838C222.122 19.354 222.357 18.9433 222.65 18.606C222.958 18.254 223.325 17.9827 223.75 17.792C224.19 17.5867 224.689 17.484 225.246 17.484C225.803 17.484 226.265 17.572 226.632 17.748C227.013 17.924 227.314 18.166 227.534 18.474C227.754 18.782 227.908 19.1487 227.996 19.574C228.084 19.9847 228.128 20.432 228.128 20.916V28H229.514V20.696C229.514 20.0213 229.448 19.4127 229.316 18.87C229.184 18.3273 228.957 17.8727 228.634 17.506C228.311 17.1247 227.879 16.8313 227.336 16.626C226.808 16.4207 226.148 16.318 225.356 16.318C224.549 16.318 223.809 16.5307 223.134 16.956C222.459 17.3667 221.99 17.9167 221.726 18.606H221.682V16.648H220.296ZM240.296 21.532H232.948C233.007 21.0187 233.124 20.52 233.3 20.036C233.491 19.5373 233.74 19.1047 234.048 18.738C234.356 18.3567 234.73 18.056 235.17 17.836C235.61 17.6013 236.116 17.484 236.688 17.484C237.246 17.484 237.744 17.6013 238.184 17.836C238.624 18.056 238.998 18.3567 239.306 18.738C239.614 19.1047 239.849 19.53 240.01 20.014C240.186 20.498 240.282 21.004 240.296 21.532ZM232.948 22.698H241.682C241.712 21.906 241.638 21.1287 241.462 20.366C241.286 19.5887 240.993 18.9067 240.582 18.32C240.186 17.7187 239.666 17.2347 239.02 16.868C238.375 16.5013 237.598 16.318 236.688 16.318C235.794 16.318 235.016 16.494 234.356 16.846C233.711 17.1833 233.183 17.638 232.772 18.21C232.362 18.7673 232.054 19.4053 231.848 20.124C231.658 20.8427 231.562 21.576 231.562 22.324C231.562 23.1307 231.658 23.9007 231.848 24.634C232.054 25.3527 232.362 25.9907 232.772 26.548C233.183 27.0907 233.711 27.5233 234.356 27.846C235.016 28.154 235.794 28.308 236.688 28.308C238.126 28.308 239.233 27.956 240.01 27.252C240.802 26.548 241.345 25.5507 241.638 24.26H240.252C240.032 25.14 239.636 25.844 239.064 26.372C238.492 26.9 237.7 27.164 236.688 27.164C236.028 27.164 235.464 27.0247 234.994 26.746C234.525 26.4673 234.136 26.1153 233.828 25.69C233.52 25.2647 233.293 24.788 233.146 24.26C233.014 23.7173 232.948 23.1967 232.948 22.698ZM250.341 19.97H251.727C251.697 19.354 251.573 18.8187 251.353 18.364C251.133 17.9093 250.832 17.528 250.451 17.22C250.084 16.912 249.651 16.6847 249.153 16.538C248.669 16.3913 248.141 16.318 247.569 16.318C247.07 16.318 246.564 16.3767 246.051 16.494C245.552 16.6113 245.097 16.7947 244.687 17.044C244.276 17.2933 243.939 17.6233 243.675 18.034C243.425 18.4447 243.301 18.936 243.301 19.508C243.301 19.992 243.381 20.4027 243.543 20.74C243.704 21.0627 243.924 21.3413 244.203 21.576C244.496 21.796 244.833 21.9867 245.215 22.148C245.596 22.2947 246.014 22.4267 246.469 22.544L248.251 22.94C248.559 23.0133 248.859 23.1013 249.153 23.204C249.461 23.3067 249.732 23.4387 249.967 23.6C250.201 23.7467 250.385 23.9373 250.517 24.172C250.663 24.392 250.737 24.6707 250.737 25.008C250.737 25.404 250.634 25.7413 250.429 26.02C250.238 26.284 249.989 26.504 249.681 26.68C249.373 26.856 249.035 26.9807 248.669 27.054C248.317 27.1273 247.972 27.164 247.635 27.164C246.711 27.164 245.933 26.9293 245.303 26.46C244.687 25.976 244.349 25.2647 244.291 24.326H242.905C243.022 25.7193 243.491 26.7313 244.313 27.362C245.149 27.9927 246.234 28.308 247.569 28.308C248.097 28.308 248.632 28.2493 249.175 28.132C249.717 28.0147 250.201 27.824 250.627 27.56C251.067 27.2813 251.426 26.9293 251.705 26.504C251.983 26.064 252.123 25.536 252.123 24.92C252.123 24.4213 252.027 23.9887 251.837 23.622C251.646 23.2553 251.397 22.9473 251.089 22.698C250.795 22.4487 250.451 22.2507 250.055 22.104C249.673 21.9427 249.285 21.8327 248.889 21.774L247.041 21.356C246.806 21.2973 246.549 21.224 246.271 21.136C245.992 21.0333 245.735 20.9087 245.501 20.762C245.266 20.6153 245.068 20.4393 244.907 20.234C244.76 20.014 244.687 19.75 244.687 19.442C244.687 19.0753 244.767 18.7673 244.929 18.518C245.09 18.2687 245.303 18.0707 245.567 17.924C245.831 17.7627 246.117 17.6527 246.425 17.594C246.747 17.5207 247.063 17.484 247.371 17.484C247.767 17.484 248.141 17.5353 248.493 17.638C248.845 17.726 249.153 17.8727 249.417 18.078C249.695 18.2833 249.915 18.5473 250.077 18.87C250.238 19.178 250.326 19.5447 250.341 19.97ZM260.932 19.97H262.318C262.289 19.354 262.164 18.8187 261.944 18.364C261.724 17.9093 261.424 17.528 261.042 17.22C260.676 16.912 260.243 16.6847 259.744 16.538C259.26 16.3913 258.732 16.318 258.16 16.318C257.662 16.318 257.156 16.3767 256.642 16.494C256.144 16.6113 255.689 16.7947 255.278 17.044C254.868 17.2933 254.53 17.6233 254.266 18.034C254.017 18.4447 253.892 18.936 253.892 19.508C253.892 19.992 253.973 20.4027 254.134 20.74C254.296 21.0627 254.516 21.3413 254.794 21.576C255.088 21.796 255.425 21.9867 255.806 22.148C256.188 22.2947 256.606 22.4267 257.06 22.544L258.842 22.94C259.15 23.0133 259.451 23.1013 259.744 23.204C260.052 23.3067 260.324 23.4387 260.558 23.6C260.793 23.7467 260.976 23.9373 261.108 24.172C261.255 24.392 261.328 24.6707 261.328 25.008C261.328 25.404 261.226 25.7413 261.02 26.02C260.83 26.284 260.58 26.504 260.272 26.68C259.964 26.856 259.627 26.9807 259.26 27.054C258.908 27.1273 258.564 27.164 258.226 27.164C257.302 27.164 256.525 26.9293 255.894 26.46C255.278 25.976 254.941 25.2647 254.882 24.326H253.496C253.614 25.7193 254.083 26.7313 254.904 27.362C255.74 27.9927 256.826 28.308 258.16 28.308C258.688 28.308 259.224 28.2493 259.766 28.132C260.309 28.0147 260.793 27.824 261.218 27.56C261.658 27.2813 262.018 26.9293 262.296 26.504C262.575 26.064 262.714 25.536 262.714 24.92C262.714 24.4213 262.619 23.9887 262.428 23.622C262.238 23.2553 261.988 22.9473 261.68 22.698C261.387 22.4487 261.042 22.2507 260.646 22.104C260.265 21.9427 259.876 21.8327 259.48 21.774L257.632 21.356C257.398 21.2973 257.141 21.224 256.862 21.136C256.584 21.0333 256.327 20.9087 256.092 20.762C255.858 20.6153 255.66 20.4393 255.498 20.234C255.352 20.014 255.278 19.75 255.278 19.442C255.278 19.0753 255.359 18.7673 255.52 18.518C255.682 18.2687 255.894 18.0707 256.158 17.924C256.422 17.7627 256.708 17.6527 257.016 17.594C257.339 17.5207 257.654 17.484 257.962 17.484C258.358 17.484 258.732 17.5353 259.084 17.638C259.436 17.726 259.744 17.8727 260.008 18.078C260.287 18.2833 260.507 18.5473 260.668 18.87C260.83 19.178 260.918 19.5447 260.932 19.97Z" fill="white"/>
<path fill-rule="evenodd" clip-rule="evenodd" d="M28.2476 28.3237H25.3168L20 16.5872L14.6827 28.3237H11.7524V5.00261H15.0915V19.3303L18.4365 11.9461H21.5635L24.908 19.3303V5.00261H28.2476V28.3237ZM11.7524 34.9969H28.2471V31.6578H11.7524V34.9969ZM31.6165 0H8.3835C3.77275 0 0 3.77225 0 8.3835V31.616C0 36.2272 3.77275 40 8.3835 40H31.6165C36.2272 40 40 36.2272 40 31.616V8.3835C40 3.77225 36.2272 0 31.6165 0Z" fill="white"/>
</svg>
