<svg id="グループ_4" data-name="グループ 4" xmlns="http://www.w3.org/2000/svg" width="65" height="65" viewBox="0 0 65 65">
  <circle id="楕円形_4" data-name="楕円形 4" cx="32.5" cy="32.5" r="32.5" fill="#2b2b2b"/>
  <path id="パス_4" data-name="パス 4" d="M39,14.625H26a4.064,4.064,0,0,0-4.062,4.063V46.313A4.064,4.064,0,0,0,26,50.375H39a4.064,4.064,0,0,0,4.063-4.062V18.688A4.064,4.064,0,0,0,39,14.625ZM32.5,48.75a2.438,2.438,0,1,1,2.438-2.437A2.434,2.434,0,0,1,32.5,48.75Zm-7.312-6.5H39.813V19.5H25.188Z" fill="#fff" fill-rule="evenodd"/>
</svg>
