<svg id="グループ_6" data-name="グループ 6" xmlns="http://www.w3.org/2000/svg" width="140" height="140" viewBox="0 0 140 140">
  <circle id="楕円形_6" data-name="楕円形 6" cx="70" cy="70" r="70" fill="#2E6CFF"/>
  <path id="パス_6" data-name="パス 6" d="M102.084,58.333a5.851,5.851,0,0,1-5.834,5.833,4.958,4.958,0,0,1-1.487-.2L84.38,74.317a5.153,5.153,0,0,1,.2,1.517,5.833,5.833,0,1,1-11.667,0,5.149,5.149,0,0,1,.2-1.517l-7.437-7.437a5.738,5.738,0,0,1-3.033,0L49.38,80.179a4.958,4.958,0,0,1,.2,1.488,5.833,5.833,0,1,1-5.833-5.833,4.958,4.958,0,0,1,1.487.2l13.3-13.271a5.154,5.154,0,0,1-.2-1.517A5.833,5.833,0,1,1,70,61.25a5.154,5.154,0,0,1-.2,1.517L77.234,70.2a5.734,5.734,0,0,1,3.033,0L90.621,59.821a4.955,4.955,0,0,1-.2-1.487,5.833,5.833,0,0,1,11.667,0Z" fill="#fff"/>
</svg>
