<svg width="140" height="140" viewBox="0 0 140 140" fill="none" xmlns="http://www.w3.org/2000/svg">
<circle cx="70" cy="70" r="70" fill="#2E6CFF"/>
<path fill-rule="evenodd" clip-rule="evenodd" d="M40.8333 70C40.8333 53.9 53.9 40.8333 70 40.8333C86.1 40.8333 99.1666 53.9 99.1666 70C99.1666 86.1 86.1 99.1666 70 99.1666C53.9 99.1666 40.8333 86.1 40.8333 70ZM72.9166 81.6666V87.5H67.0833V81.6666H72.9166ZM70 93.3333C57.1375 93.3333 46.6666 82.8625 46.6666 70C46.6666 57.1375 57.1375 46.6666 70 46.6666C82.8625 46.6666 93.3333 57.1375 93.3333 70C93.3333 82.8625 82.8625 93.3333 70 93.3333ZM58.3333 64.1666C58.3333 57.7208 63.5541 52.5 70 52.5C76.4458 52.5 81.6666 57.7208 81.6666 64.1666C81.6666 67.9085 79.3624 69.9222 77.1189 71.8828C74.9905 73.7428 72.9166 75.5551 72.9166 78.75H67.0833C67.0833 73.4379 69.8312 71.3317 72.2471 69.4799C74.1423 68.0272 75.8333 66.731 75.8333 64.1666C75.8333 60.9583 73.2083 58.3333 70 58.3333C66.7916 58.3333 64.1666 60.9583 64.1666 64.1666H58.3333Z" fill="white"/>
</svg>
