<svg width="140" height="140" viewBox="0 0 140 140" fill="none" xmlns="http://www.w3.org/2000/svg">
<circle cx="70" cy="70" r="70" fill="white"/>
<path fill-rule="evenodd" clip-rule="evenodd" d="M40.8334 70C40.8334 53.9 53.9 40.8333 70 40.8333C86.1 40.8333 99.1667 53.9 99.1667 70C99.1667 86.1 86.1 99.1666 70 99.1666C53.9 99.1666 40.8334 86.1 40.8334 70ZM46.6667 70C46.6667 82.8625 57.1375 93.3333 70 93.3333C82.8625 93.3333 93.3334 82.8625 93.3334 70C93.3334 57.1375 82.8625 46.6666 70 46.6666C57.1375 46.6666 46.6667 57.1375 46.6667 70ZM53.9584 86.0416L75.8625 75.8625L86.0417 53.9583L64.1375 64.1375L53.9584 86.0416ZM73.2084 70C73.2084 68.2208 71.7792 66.7916 70 66.7916C68.2209 66.7916 66.7917 68.2208 66.7917 70C66.7917 71.7791 68.2209 73.2083 70 73.2083C71.7792 73.2083 73.2084 71.7791 73.2084 70Z" fill="#2E6CFF"/>
</svg>
