<svg width="35" height="45" viewBox="0 0 35 45" fill="none" xmlns="http://www.w3.org/2000/svg">
<path fill-rule="evenodd" clip-rule="evenodd" d="M27.8571 15H30C32.3571 15 34.2857 16.9286 34.2857 19.2857V40.7143C34.2857 43.0714 32.3571 45 30 45H4.28571C1.92857 45 0 43.0714 0 40.7143V19.2857C0 16.9286 1.92857 15 4.28571 15H6.42857V10.7143C6.42857 4.8 11.2286 0 17.1429 0C23.0571 0 27.8571 4.8 27.8571 10.7143V15ZM17.1429 4.28571C13.5857 4.28571 10.7143 7.15714 10.7143 10.7143V15H23.5714V10.7143C23.5714 7.15714 20.7 4.28571 17.1429 4.28571ZM4.28571 40.7143V19.2857H30V40.7143H4.28571ZM21.4286 30C21.4286 32.3571 19.5 34.2857 17.1429 34.2857C14.7857 34.2857 12.8571 32.3571 12.8571 30C12.8571 27.6429 14.7857 25.7143 17.1429 25.7143C19.5 25.7143 21.4286 27.6429 21.4286 30Z" fill="white"/>
</svg>
